<svg width="51" height="50" viewBox="0 0 51 50" fill="none" xmlns="http://www.w3.org/2000/svg">
<path fill-rule="evenodd" clip-rule="evenodd" d="M25.6666 6.04301C25.4188 6.41071 25.1135 6.95276 24.659 7.76809L24.3859 8.25797C24.3656 8.29435 24.3447 8.33236 24.3231 8.37172C24.0969 8.78276 23.7896 9.34113 23.2821 9.72636C22.7653 10.1187 22.1421 10.2559 21.6965 10.3539C21.6542 10.3633 21.6135 10.3722 21.5746 10.381L21.0443 10.501C20.0752 10.7203 19.4713 10.8606 19.0654 11.0025C19.3164 11.3795 19.7376 11.8775 20.4208 12.6764L20.7823 13.0992C20.8089 13.1303 20.8367 13.1624 20.8653 13.1955C21.1731 13.5518 21.5826 14.0258 21.7718 14.6344C21.9591 15.2367 21.8957 15.8599 21.8473 16.3362C21.8427 16.3807 21.8383 16.4239 21.8343 16.4657L21.7796 17.0297C21.682 18.0373 21.6218 18.6891 21.6235 19.1501C22.024 19.0082 22.5725 18.7591 23.4095 18.3737L23.906 18.1451C23.9425 18.1283 23.9808 18.1104 24.0206 18.0917C24.4328 17.8988 25.0175 17.6252 25.6666 17.6252C26.3156 17.6252 26.9003 17.8988 27.3125 18.0917C27.3524 18.1104 27.3906 18.1283 27.4272 18.1451L27.9237 18.3737C28.7607 18.7591 29.3092 19.0082 29.7096 19.1501C29.7113 18.6891 29.6512 18.0373 29.5535 17.0297L29.4989 16.4657C29.4948 16.4239 29.4904 16.3807 29.4859 16.3362C29.4374 15.8599 29.374 15.2367 29.5613 14.6344C29.7506 14.0258 30.1601 13.5518 30.4679 13.1955C30.4965 13.1624 30.5242 13.1303 30.5508 13.0992L30.9123 12.6764C31.5956 11.8775 32.0168 11.3795 32.2677 11.0025C31.8619 10.8606 31.2579 10.7203 30.2888 10.501L29.7585 10.381C29.7197 10.3722 29.679 10.3633 29.6367 10.3539C29.1911 10.2559 28.5678 10.1187 28.051 9.72636C27.5436 9.34113 27.2363 8.78275 27.0101 8.37171C26.9884 8.33235 26.9675 8.29435 26.9472 8.25797L26.6742 7.76809C26.2197 6.95276 25.9144 6.41071 25.6666 6.04301ZM30.1519 19.2716C30.1542 19.2716 30.1554 19.2717 30.1555 19.2718ZM21.1777 19.2718C21.1777 19.2717 21.179 19.2716 21.1813 19.2716ZM23.3398 3.92708C23.7891 3.34035 24.5227 2.60449 25.6666 2.60449C26.8104 2.60449 27.544 3.34035 27.9934 3.92708C28.426 4.49207 28.8689 5.28681 29.3506 6.15115C29.3682 6.18285 29.3859 6.21464 29.4037 6.24652L29.6768 6.7364C29.7535 6.87394 29.8128 6.98026 29.8654 7.0714C29.9008 7.13265 29.9286 7.17892 29.9509 7.21463C29.986 7.22431 30.0303 7.23579 30.0871 7.24963C30.1851 7.27348 30.299 7.2993 30.4482 7.33305L30.9784 7.45304C31.0146 7.46122 31.0507 7.46938 31.0867 7.47751C32.0177 7.68801 32.8867 7.88448 33.5429 8.14308C34.254 8.42329 35.1131 8.92831 35.4441 9.99279C35.7698 11.0402 35.3688 11.9445 34.9637 12.588C34.5831 13.1926 33.9956 13.8795 33.3573 14.6256L32.9258 15.1302C32.8243 15.2489 32.746 15.3405 32.6795 15.4207C32.625 15.4865 32.5874 15.5341 32.5604 15.5699C32.5639 15.686 32.5788 15.8493 32.6093 16.1643L32.6743 16.8344C32.7711 17.8328 32.8596 18.7441 32.8276 19.4618C32.7944 20.2075 32.6184 21.2055 31.732 21.8784C30.8202 22.5706 29.8013 22.4356 29.0787 22.2286C28.4023 22.0348 27.5897 21.6605 26.7184 21.2591C26.6846 21.2435 26.6507 21.2279 26.6167 21.2123L26.1202 20.9836C25.9805 20.9193 25.8737 20.8702 25.7808 20.8292C25.7351 20.8091 25.6976 20.7931 25.6666 20.7803C25.6355 20.7931 25.598 20.8091 25.5523 20.8292C25.4595 20.8702 25.3526 20.9193 25.213 20.9836L24.7165 21.2123C24.6825 21.2279 24.6486 21.2435 24.6147 21.2591C23.7434 21.6605 22.9308 22.0348 22.2545 22.2286C21.5318 22.4356 20.513 22.5706 19.6011 21.8784C18.7147 21.2055 18.5388 20.2075 18.5056 19.4618C18.4736 18.7441 18.562 17.8328 18.6589 16.8344C18.6623 16.7992 18.6658 16.7638 18.6692 16.7283L18.7239 16.1643C18.7544 15.8493 18.7693 15.686 18.7728 15.5699C18.7458 15.5341 18.7081 15.4865 18.6536 15.4207C18.5871 15.3405 18.5089 15.2489 18.4073 15.1302L18.0458 14.7074C18.0224 14.6801 17.9991 14.6528 17.9758 14.6256C17.3376 13.8794 16.75 13.1926 16.3695 12.588C15.9644 11.9445 15.5633 11.0402 15.8891 9.99279C16.2201 8.92831 17.0792 8.42329 17.7902 8.14308C18.4464 7.88448 19.3154 7.68801 20.2465 7.47751C20.2825 7.46938 20.3185 7.46122 20.3547 7.45304L20.885 7.33306C21.0342 7.2993 21.1481 7.27348 21.246 7.24963C21.3029 7.23579 21.3472 7.22431 21.3822 7.21463C21.4046 7.17893 21.4323 7.13266 21.4677 7.0714C21.5204 6.98026 21.5797 6.87394 21.6564 6.7364L21.9294 6.24652C21.9472 6.21464 21.9649 6.18285 21.9826 6.15115C22.4643 5.28681 22.9071 4.49207 23.3398 3.92708ZM8.99991 17.087C9.1086 17.2877 9.33997 17.6973 9.71976 17.9856C10.1279 18.2954 10.6178 18.3986 10.8214 18.4415C10.8417 18.4457 10.8592 18.4494 10.8735 18.4527L10.9164 18.4624L10.8483 18.542C10.8378 18.5542 10.8252 18.5686 10.8108 18.585C10.6679 18.7478 10.3486 19.1116 10.2013 19.5854C10.056 20.0527 10.1083 20.5312 10.1323 20.7499C10.1347 20.7722 10.1368 20.7917 10.1385 20.8083L10.1407 20.8315C9.94423 20.7375 9.49882 20.5315 8.99991 20.5315C8.501 20.5315 8.05559 20.7375 7.85912 20.8315L7.86137 20.8083C7.86298 20.7917 7.86512 20.7722 7.86756 20.7499C7.89149 20.5312 7.94386 20.0527 7.79854 19.5854C7.65121 19.1116 7.33188 18.7478 7.18903 18.585C7.17462 18.5686 7.162 18.5542 7.15154 18.542L7.08344 18.4624L7.12634 18.4527C7.1406 18.4494 7.15809 18.4457 7.17844 18.4415C7.38203 18.3986 7.87192 18.2954 8.28006 17.9856C8.65985 17.6973 8.89123 17.2877 8.99991 17.087ZM6.78153 16.9287L6.48593 15.6222ZM7.76241 22.1511C7.76285 22.1542 7.76301 22.1558 7.76297 22.1558ZM10.2368 22.1558C10.2368 22.1558 10.237 22.1542 10.2374 22.1511ZM7.21626 13.9887C7.48431 13.6387 8.05334 13.0212 8.99991 13.0212C9.94649 13.0212 10.5155 13.6387 10.7836 13.9887C11.0358 14.3181 11.283 14.762 11.5104 15.1705C11.524 15.1948 11.5375 15.219 11.5509 15.243L11.6522 15.4249L11.8283 15.4647C11.8551 15.4708 11.8821 15.4769 11.9093 15.483C12.3487 15.5822 12.8383 15.6927 13.2245 15.8449C13.6641 16.0181 14.3646 16.3961 14.6347 17.2646C14.8994 18.116 14.5553 18.8201 14.3096 19.2104C14.0877 19.5629 13.7591 19.9468 13.4573 20.2993C13.4395 20.3202 13.4217 20.341 13.404 20.3616L13.252 20.5394L13.2762 20.789C13.2788 20.816 13.2815 20.8431 13.2841 20.8704C13.3301 21.3427 13.3794 21.8496 13.3609 22.2658C13.3412 22.7087 13.2318 23.5099 12.505 24.0616C11.7527 24.6327 10.9336 24.4924 10.4908 24.3655C10.0928 24.2514 9.63537 24.0405 9.22443 23.851C9.19884 23.8393 9.17343 23.8275 9.14823 23.8159L8.99991 23.7476L8.85159 23.8159C8.82639 23.8275 8.80098 23.8392 8.7754 23.851C8.36446 24.0405 7.90707 24.2514 7.50906 24.3655C7.06621 24.4924 6.24711 24.6327 5.4948 24.0616C4.76799 23.5099 4.65866 22.7087 4.63894 22.2658C4.62039 21.8496 4.66973 21.3427 4.71569 20.8704C4.71835 20.8432 4.72099 20.816 4.72361 20.789L4.74779 20.5394L4.59578 20.3616C4.57813 20.341 4.56035 20.3202 4.54248 20.2993C4.2407 19.9468 3.91209 19.5629 3.6902 19.2104C3.44453 18.8201 3.10038 18.116 3.36515 17.2646C3.63521 16.3961 4.33572 16.0181 4.77529 15.8449C5.16148 15.6927 5.65112 15.5822 6.09049 15.483C6.11772 15.4769 6.14476 15.4708 6.17157 15.4647L6.34759 15.4249L6.44895 15.243C6.46235 15.219 6.47583 15.1948 6.48937 15.1705C6.71681 14.762 6.964 14.3181 7.21626 13.9887ZM42.3332 17.087C42.4419 17.2877 42.6733 17.6973 43.0531 17.9856C43.4612 18.2954 43.9511 18.3986 44.1547 18.4415C44.1751 18.4457 44.1925 18.4494 44.2068 18.4527L44.2497 18.4624L44.1816 18.542C44.1712 18.5542 44.1585 18.5686 44.1441 18.585C44.0013 18.7478 43.6819 19.1116 43.5346 19.5854C43.3893 20.0527 43.4417 20.5312 43.4656 20.7499C43.468 20.7722 43.4702 20.7917 43.4718 20.8083L43.474 20.8315C43.2776 20.7375 42.8322 20.5315 42.3332 20.5315C41.8343 20.5315 41.3889 20.7375 41.1925 20.8315L41.1947 20.8083C41.1963 20.7917 41.1985 20.7722 41.2009 20.7499C41.2248 20.5312 41.2772 20.0527 41.1319 19.5854C40.9845 19.1116 40.6652 18.7478 40.5224 18.585C40.5079 18.5686 40.4953 18.5542 40.4849 18.542L40.4168 18.4624L40.4597 18.4527C40.4739 18.4494 40.4914 18.4457 40.5118 18.4415C40.7154 18.3986 41.2053 18.2954 41.6134 17.9856C41.9932 17.6973 42.2246 17.2877 42.3332 17.087ZM41.0957 22.1511C41.0962 22.1544 41.0964 22.156 41.0963 22.1558ZM40.5496 13.9887C40.8176 13.6387 41.3867 13.0212 42.3332 13.0212C43.2798 13.0212 43.8488 13.6387 44.1169 13.9887C44.3691 14.3181 44.6163 14.762 44.8438 15.1704C44.8573 15.1948 44.8708 15.219 44.8842 15.243L44.9856 15.4249L45.1616 15.4647C45.1884 15.4708 45.2154 15.4769 45.2427 15.483C45.682 15.5822 46.1717 15.6927 46.5579 15.8449C46.9974 16.0181 47.6979 16.3961 47.968 17.2646C48.2328 18.116 47.8886 18.8201 47.643 19.2104C47.4211 19.5629 47.0924 19.9468 46.7906 20.2994C46.7728 20.3202 46.755 20.341 46.7374 20.3616L46.5854 20.5394L46.6095 20.789C46.6122 20.816 46.6148 20.8431 46.6175 20.8704C46.6634 21.3427 46.7128 21.8496 46.6942 22.2658C46.6745 22.7087 46.5652 23.5099 45.8384 24.0616C45.0861 24.6327 44.267 24.4924 43.8241 24.3655C43.4261 24.2514 42.9687 24.0406 42.5578 23.8511C42.5322 23.8393 42.5068 23.8275 42.4816 23.8159L42.3332 23.7476L42.1849 23.8159C42.1597 23.8275 42.1343 23.8392 42.1088 23.851C41.6978 24.0405 41.2404 24.2514 40.8424 24.3655C40.3995 24.4924 39.5804 24.6327 38.8281 24.0616C38.1013 23.5099 37.992 22.7087 37.9723 22.2658C37.9537 21.8496 38.0031 21.3427 38.049 20.8704C38.0517 20.8432 38.0543 20.816 38.0569 20.789L38.0811 20.5394L37.9291 20.3616C37.9115 20.341 37.8937 20.3202 37.8758 20.2993C37.574 19.9468 37.2454 19.5629 37.0235 19.2104C36.7779 18.8201 36.4337 18.116 36.6985 17.2646C36.9685 16.3961 37.6691 16.0181 38.1086 15.8449C38.4948 15.6927 38.9845 15.5822 39.4238 15.483C39.4511 15.4769 39.4781 15.4708 39.5049 15.4647L39.6809 15.4249L39.7823 15.243C39.7957 15.219 39.8092 15.1948 39.8227 15.1705C40.0501 14.762 40.2973 14.3181 40.5496 13.9887ZM43.5702 22.1558C43.5702 22.1557 43.5703 22.154 43.5707 22.1511ZM18.7581 30.1007C22.6452 29.3476 26.8063 29.5166 30.1733 31.5248C30.6463 31.8069 31.0896 32.1584 31.4764 32.5929C32.2595 33.4724 32.6639 34.5656 32.683 35.6615C33.0814 35.4045 33.4806 35.1191 33.8861 34.8128L37.6511 31.9687C39.5356 30.5451 42.2744 30.5449 44.1592 31.968C45.9007 33.283 46.5951 35.643 45.3483 37.6414C44.4623 39.0617 43.1278 41.0263 41.7698 42.284C40.3971 43.5554 38.4434 44.6244 36.9655 45.3378C35.1708 46.204 33.2324 46.6829 31.3474 46.9881C27.4949 47.6117 23.4862 47.5163 19.677 46.7315C17.7303 46.3304 15.7073 46.122 13.7081 46.122H8.99991C8.13697 46.122 7.43741 45.4224 7.43741 44.5595C7.43741 43.6965 8.13697 42.997 8.99991 42.997H13.7081C15.9208 42.997 18.1551 43.2273 20.3075 43.6708C23.7493 44.3798 27.3751 44.4654 30.848 43.9032C32.575 43.6237 34.1876 43.2086 35.6071 42.5234C37.0309 41.8362 38.6317 40.9311 39.6464 39.9913C40.6724 39.041 41.8208 37.3917 42.697 35.9873C42.9614 35.5635 42.9249 34.9518 42.2761 34.462C41.5059 33.8803 40.3047 33.8805 39.5347 34.4622L35.7697 37.3063C34.2667 38.4417 32.4168 39.6563 30.1222 40.0223C29.8907 40.0592 29.6496 40.093 29.3994 40.1228C29.28 40.1444 29.1558 40.1586 29.0274 40.1634C27.856 40.2798 26.4993 40.3069 25.0025 40.1656C24.1434 40.0844 23.5127 39.3222 23.5938 38.4631C23.675 37.604 24.4372 36.9733 25.2963 37.0544C26.6035 37.1778 27.7762 37.1506 28.7712 37.0484C28.7914 37.0463 28.8115 37.0442 28.8315 37.0421C28.8731 37.018 28.9366 36.974 29.0199 36.9013C29.6854 36.3204 29.7449 35.3476 29.1424 34.6708C28.9896 34.4993 28.8016 34.3453 28.5726 34.2087C26.1118 32.741 22.8254 32.4958 19.3524 33.1686C15.8992 33.8376 12.4685 35.3788 9.90378 37.1976C9.19987 37.6968 8.22457 37.5308 7.72538 36.8269C7.22619 36.123 7.39214 35.1477 8.09605 34.6485C11.0093 32.5825 14.8512 30.8576 18.7581 30.1007Z" fill="#637381"/>
</svg>
