<svg width="50" height="50" viewBox="0 0 50 50" fill="none" xmlns="http://www.w3.org/2000/svg">
<path d="M37.4999 38.5413C36.6711 38.5413 35.8763 38.2121 35.2902 37.6261C34.7042 37.04 34.3749 36.2451 34.3749 35.4163C34.3749 34.5875 34.7042 33.7927 35.2902 33.2066C35.8763 32.6206 36.6711 32.2913 37.4999 32.2913C38.3287 32.2913 39.1236 32.6206 39.7096 33.2066C40.2957 33.7927 40.6249 34.5875 40.6249 35.4163C40.6249 36.2451 40.2957 37.04 39.7096 37.6261C39.1236 38.2121 38.3287 38.5413 37.4999 38.5413ZM40.6249 19.7913L44.7083 24.9997H35.4166V19.7913M12.4999 38.5413C11.6711 38.5413 10.8763 38.2121 10.2902 37.6261C9.70416 37.04 9.37492 36.2451 9.37492 35.4163C9.37492 34.5875 9.70416 33.7927 10.2902 33.2066C10.8763 32.6206 11.6711 32.2913 12.4999 32.2913C13.3287 32.2913 14.1236 32.6206 14.7096 33.2066C15.2957 33.7927 15.6249 34.5875 15.6249 35.4163C15.6249 36.2451 15.2957 37.04 14.7096 37.6261C14.1236 38.2121 13.3287 38.5413 12.4999 38.5413ZM41.6666 16.6663H35.4166V8.33301H6.24992C3.93742 8.33301 2.08325 10.1872 2.08325 12.4997V35.4163H6.24992C6.24992 37.0739 6.9084 38.6637 8.0805 39.8358C9.2526 41.0079 10.8423 41.6663 12.4999 41.6663C14.1575 41.6663 15.7472 41.0079 16.9193 39.8358C18.0914 38.6637 18.7499 37.0739 18.7499 35.4163H31.2499C31.2499 37.0739 31.9084 38.6637 33.0805 39.8358C34.2526 41.0079 35.8423 41.6663 37.4999 41.6663C39.1575 41.6663 40.7472 41.0079 41.9193 39.8358C43.0914 38.6637 43.7499 37.0739 43.7499 35.4163H47.9166V24.9997L41.6666 16.6663Z" fill="#637381"/>
</svg>
