<svg width="30" height="30" viewBox="0 0 30 30" fill="none" xmlns="http://www.w3.org/2000/svg">
<path fill-rule="evenodd" clip-rule="evenodd" d="M7.03045 5.53038C4.95671 6.47829 3.4375 8.73292 3.4375 11.4215C3.4375 14.1683 4.56152 16.2854 6.17286 18.0998C7.50091 19.5953 9.10855 20.8347 10.6764 22.0434C11.0488 22.3305 11.4189 22.6158 11.7826 22.9025C12.4401 23.4208 13.0267 23.8758 13.592 24.2062C14.1577 24.5367 14.613 24.6876 15 24.6876C15.387 24.6876 15.8423 24.5367 16.408 24.2062C16.9733 23.8758 17.5599 23.4208 18.2174 22.9025C18.5811 22.6158 18.9512 22.3305 19.3236 22.0434C20.8915 20.8347 22.4991 19.5953 23.8271 18.0998C25.4385 16.2854 26.5625 14.1683 26.5625 11.4215C26.5625 8.73292 25.0433 6.47829 22.9696 5.53038C20.9549 4.60948 18.2479 4.85335 15.6755 7.52605C15.4987 7.70967 15.2549 7.81343 15 7.81343C14.7451 7.81343 14.5013 7.70967 14.3245 7.52605C11.7521 4.85335 9.04508 4.60948 7.03045 5.53038ZM15 5.57365C12.1099 2.98794 8.8737 2.62622 6.25095 3.82508C3.48089 5.09129 1.5625 8.03142 1.5625 11.4215C1.5625 14.7534 2.95062 17.2952 4.7709 19.3449C6.22859 20.9863 8.01278 22.3601 9.58853 23.5734C9.94573 23.8484 10.2922 24.1152 10.6218 24.375C11.2621 24.8797 11.9494 25.418 12.646 25.825C13.3423 26.2319 14.137 26.5626 15 26.5626C15.863 26.5626 16.6577 26.2319 17.354 25.825C18.0506 25.418 18.7379 24.8797 19.3782 24.375C19.7078 24.1152 20.0543 23.8484 20.4115 23.5734C21.9872 22.3601 23.7714 20.9863 25.2291 19.3449C27.0494 17.2952 28.4375 14.7534 28.4375 11.4215C28.4375 8.03142 26.5191 5.09129 23.749 3.82508C21.1263 2.62622 17.8901 2.98794 15 5.57365Z" fill="#637381"/>
</svg>
