<svg width="22" height="23" viewBox="0 0 22 23" fill="none" xmlns="http://www.w3.org/2000/svg">
<path d="M11.8125 1.1665C11.8125 0.717773 11.4487 0.354004 11 0.354004C10.5513 0.354004 10.1875 0.717773 10.1875 1.1665V5.49984C10.1875 5.94857 10.5513 6.31234 11 6.31234C11.4487 6.31234 11.8125 5.94857 11.8125 5.49984V1.1665Z" fill="#637381"/>
<path d="M7.52455 3.76302C7.9379 3.58837 8.13142 3.11171 7.95677 2.69836C7.78213 2.28501 7.30547 2.09149 6.89211 2.26614C3.10068 3.86804 0.4375 7.62199 0.4375 11.9998C0.4375 17.8334 5.16649 22.5623 11 22.5623C16.8335 22.5623 21.5625 17.8334 21.5625 11.9998C21.5625 7.62199 18.8993 3.86804 15.1079 2.26614C14.6945 2.09149 14.2179 2.28501 14.0432 2.69836C13.8686 3.11171 14.0621 3.58837 14.4754 3.76302C17.6866 5.11973 19.9375 8.29786 19.9375 11.9998C19.9375 16.9359 15.936 20.9373 11 20.9373C6.06396 20.9373 2.0625 16.9359 2.0625 11.9998C2.0625 8.29786 4.31344 5.11973 7.52455 3.76302Z" fill="#637381"/>
</svg>