<svg width="51" height="50" viewBox="0 0 51 50" fill="none" xmlns="http://www.w3.org/2000/svg">
<path d="M31.7071 21.8743C32.2818 21.2306 32.2259 20.2429 31.5822 19.6681C30.9385 19.0934 29.9508 19.1493 29.3761 19.793L23.1011 26.821L21.2904 24.793C20.7157 24.1493 19.728 24.0934 19.0843 24.6681C18.4406 25.2429 18.3847 26.2306 18.9594 26.8743L21.9356 30.2076C22.232 30.5397 22.656 30.7295 23.1011 30.7295C23.5462 30.7295 23.9702 30.5397 24.2666 30.2076L31.7071 21.8743Z" fill="#637381"/>
<path fill-rule="evenodd" clip-rule="evenodd" d="M25.3333 2.60449C23.3801 2.60449 21.5152 3.24321 18.507 4.27348L16.9915 4.79228C13.9054 5.84866 11.5237 6.66392 9.81873 7.35655C8.95989 7.70545 8.22152 8.04339 7.62696 8.38867C7.0548 8.72096 6.4808 9.13541 6.09082 9.69104C5.70534 10.2402 5.50603 10.9154 5.38078 11.5654C5.25057 12.2411 5.17205 13.0516 5.12137 13.9823C5.02075 15.8303 5.02075 18.3618 5.02075 21.6454V24.9823C5.02075 37.6928 14.6208 43.7868 20.3298 46.2807L20.3862 46.3053C21.0941 46.6147 21.7595 46.9054 22.5241 47.1011C23.3313 47.3078 24.189 47.3962 25.3333 47.3962C26.4775 47.3962 27.3352 47.3078 28.1424 47.1011C28.9069 46.9054 29.5723 46.6147 30.2802 46.3054L30.3367 46.2807C36.0457 43.7868 45.6458 37.6928 45.6458 24.9823V21.6458C45.6458 18.362 45.6458 15.8303 45.5451 13.9823C45.4944 13.0516 45.4159 12.2411 45.2857 11.5654C45.1605 10.9154 44.9612 10.2402 44.5757 9.69104C44.1857 9.13541 43.6117 8.72096 43.0395 8.38867C42.445 8.04339 41.7066 7.70545 40.8478 7.35655C39.1428 6.66392 36.7611 5.84865 33.675 4.79227L32.1595 4.27349C29.1513 3.24321 27.2864 2.60449 25.3333 2.60449ZM19.2512 7.32178C22.6148 6.1704 23.963 5.72949 25.3333 5.72949C26.7035 5.72949 28.0517 6.1704 31.4153 7.32178L32.6087 7.73027C35.7599 8.80895 38.058 9.59626 39.6716 10.2518C40.477 10.5789 41.0605 10.8531 41.4702 11.091C41.6724 11.2085 41.8117 11.3054 41.9048 11.381C41.9836 11.4451 42.0137 11.4814 42.0181 11.4867C42.0221 11.4932 42.048 11.5365 42.0844 11.6389C42.1261 11.7558 42.1722 11.9234 42.2172 12.1567C42.3082 12.6289 42.3771 13.2774 42.4248 14.1522C42.5202 15.9047 42.5208 18.351 42.5208 21.7017V24.9823C42.5208 35.7638 34.4585 41.07 29.0858 43.417C28.3119 43.755 27.8649 43.9464 27.3674 44.0738C26.8923 44.1954 26.3124 44.2712 25.3333 44.2712C24.3541 44.2712 23.7743 44.1954 23.2991 44.0738C22.8016 43.9464 22.3546 43.755 21.5807 43.417C16.208 41.07 8.14575 35.7638 8.14575 24.9823V21.7017C8.14575 18.351 8.14633 15.9047 8.24175 14.1522C8.28939 13.2774 8.35834 12.6289 8.44932 12.1567C8.49428 11.9234 8.54043 11.7558 8.58206 11.6389C8.61852 11.5366 8.64441 11.4933 8.64844 11.4868C8.65275 11.4815 8.68283 11.4451 8.76173 11.381C8.85479 11.3054 8.99413 11.2085 9.19635 11.091C9.60596 10.8531 10.1895 10.5789 10.9949 10.2518C12.6085 9.59626 14.9066 8.80895 18.0578 7.73027L19.2512 7.32178Z" fill="#637381"/>
</svg>
