<svg width="50" height="50" viewBox="0 0 50 50" fill="none" xmlns="http://www.w3.org/2000/svg">
<path fill-rule="evenodd" clip-rule="evenodd" d="M25 5.72949C17.8088 5.72949 11.9792 11.5591 11.9792 18.7503C11.9792 25.9415 17.8088 31.7712 25 31.7712C32.1912 31.7712 38.0209 25.9415 38.0209 18.7503C38.0209 11.5591 32.1912 5.72949 25 5.72949ZM8.85419 18.7503C8.85419 9.83323 16.0829 2.60449 25 2.60449C33.9171 2.60449 41.1459 9.83323 41.1459 18.7503C41.1459 20.7107 40.7965 22.5895 40.1566 24.3278L44.9217 29.2616C45.4578 29.8167 45.9043 30.279 46.238 30.6643C46.5666 31.0438 46.9035 31.4778 47.1025 31.9821C47.7971 33.7422 47.2384 35.8252 45.563 36.8509C45.0812 37.1458 44.5325 37.2681 44.0608 37.347C43.5784 37.4278 42.9655 37.4926 42.2423 37.5691L42.1938 37.5742C41.2372 37.6754 41.0554 37.7076 40.932 37.7549C40.5609 37.8972 40.2561 38.2002 40.1052 38.6224C40.052 38.771 40.0196 38.9827 39.9227 39.9651L39.9181 40.0114C39.8439 40.7637 39.7817 41.3942 39.7045 41.8889C39.6292 42.3709 39.5146 42.919 39.2396 43.4005C38.2618 45.1128 36.2006 45.755 34.4127 44.9986C33.9094 44.7856 33.4835 44.4292 33.1196 44.0914C32.7473 43.7457 32.3007 43.2833 31.7648 42.7285L31.724 42.6862L25 35.6031L18.2668 42.6959L18.2352 42.7285C17.6994 43.2833 17.2528 43.7457 16.8805 44.0914C16.5166 44.4292 16.0906 44.7856 15.5873 44.9986C13.7994 45.755 11.7382 45.1128 10.7604 43.4005C10.4855 42.9191 10.3709 42.3709 10.2956 41.8889C10.2183 41.3941 10.1561 40.7636 10.0819 40.0114L10.0774 39.9651C9.98046 38.9827 9.94802 38.771 9.89489 38.6224C9.74393 38.2002 9.43916 37.8972 9.06809 37.7549C8.94464 37.7076 8.76289 37.6754 7.80629 37.5742L7.75781 37.5691C7.03458 37.4926 6.42168 37.4278 5.93929 37.347C5.46758 37.2681 4.91883 37.1458 4.4371 36.8509C2.7617 35.8252 2.20291 33.7422 2.89751 31.9821C3.09654 31.4778 3.43343 31.0438 3.76209 30.6643C4.09575 30.279 4.54232 29.8166 5.0785 29.2615L9.84346 24.3278C9.20357 22.5895 8.85419 20.7107 8.85419 18.7503ZM11.3075 27.3102L7.35738 31.4002C6.78215 31.9958 6.39561 32.3968 6.12439 32.71C5.87025 33.0035 5.81087 33.1171 5.80463 33.129V33.129C5.61654 33.606 5.80332 34.0099 6.05129 34.1745C6.06987 34.1806 6.17589 34.2181 6.45527 34.2649C6.83272 34.3281 7.35011 34.3835 8.13497 34.4665C8.18746 34.4721 8.23954 34.4775 8.29121 34.4829C8.99772 34.5568 9.62772 34.6227 10.1866 34.8369C11.4345 35.3153 12.3891 36.3162 12.8375 37.5703C13.038 38.1313 13.0998 38.7639 13.1719 39.5019C13.177 39.5535 13.1821 39.6056 13.1873 39.6583C13.2673 40.469 13.3213 41.0102 13.3832 41.4068C13.4362 41.7462 13.4789 41.8549 13.4803 41.8615C13.6466 42.1414 13.9884 42.2798 14.3656 42.1223V42.1223C14.3656 42.1223 14.4698 42.0654 14.7543 41.8012C15.0556 41.5214 15.4414 41.1228 16.0142 40.5298L16.0189 40.5249L21.6856 34.5556C17.3191 33.6446 13.6001 30.9698 11.3075 27.3102ZM28.3145 34.5556C32.6809 33.6446 36.3999 30.9698 38.6926 27.3102L42.6427 31.4002C43.2179 31.9958 43.6044 32.3968 43.8757 32.71C44.1298 33.0035 44.1892 33.1171 44.1954 33.129V33.129C44.3835 33.606 44.1967 34.0099 43.9488 34.1745C43.9302 34.1806 43.8242 34.2181 43.5448 34.2649C43.1673 34.3281 42.6499 34.3835 41.8651 34.4665C41.8126 34.4721 41.7605 34.4775 41.7088 34.4829C41.0023 34.5568 40.3723 34.6227 39.8135 34.8369C38.5656 35.3153 37.611 36.3162 37.1626 37.5703C36.962 38.1312 36.9002 38.7639 36.8281 39.5019C36.8231 39.5535 36.818 39.6056 36.8128 39.6583C36.7328 40.469 36.6788 41.0102 36.6169 41.4068C36.5639 41.7461 36.5212 41.8549 36.5197 41.8615C36.3528 42.1424 36.0092 42.2808 35.6304 42.1206L35.6347 42.1223C35.6347 42.1223 35.5303 42.0654 35.2458 41.8012C34.9445 41.5214 34.5586 41.1228 33.9859 40.5298L33.9811 40.5249L28.3145 34.5556ZM25 14.6555C24.8789 14.8652 24.7442 15.1066 24.5855 15.3913L24.3807 15.7588C24.3663 15.7847 24.3508 15.813 24.3342 15.8434C24.1706 16.1426 23.8996 16.638 23.4479 16.981C22.9867 17.3311 22.4319 17.4516 22.1075 17.522C22.075 17.529 22.0448 17.5356 22.0173 17.5418L21.6195 17.6318C21.2546 17.7144 20.9573 17.7818 20.7031 17.8456C20.8685 18.0492 21.0832 18.3019 21.3626 18.6285L21.6337 18.9456C21.653 18.9681 21.6739 18.9922 21.6962 19.0178C21.921 19.2768 22.2841 19.695 22.452 20.2349C22.6179 20.7684 22.5606 21.3179 22.5245 21.6645C22.5209 21.6991 22.5175 21.7317 22.5146 21.762L22.4736 22.185C22.4356 22.5772 22.4061 22.8903 22.3864 23.1448C22.6035 23.0492 22.8504 22.9356 23.1438 22.8005L23.5162 22.6291C23.5419 22.6173 23.57 22.604 23.6003 22.5897C23.8993 22.4487 24.4195 22.2034 25 22.2034C25.5806 22.2034 26.1008 22.4487 26.3997 22.5897C26.4301 22.604 26.4582 22.6173 26.4838 22.6291L26.8562 22.8005C27.1496 22.9356 27.3966 23.0492 27.6137 23.1448C27.594 22.8903 27.5644 22.5772 27.5264 22.185L27.4854 21.762C27.4825 21.7317 27.4791 21.6991 27.4755 21.6645C27.4394 21.3179 27.3822 20.7684 27.5481 20.2349C27.716 19.695 28.079 19.2768 28.3039 19.0178C28.3262 18.9922 28.3471 18.9681 28.3663 18.9456L28.6375 18.6285C28.9168 18.3019 29.1316 18.0492 29.2969 17.8456C29.0427 17.7818 28.7454 17.7144 28.3805 17.6318L27.9828 17.5418C27.9552 17.5356 27.9251 17.529 27.8926 17.522C27.5681 17.4515 27.0134 17.3311 26.5522 16.981C26.1004 16.638 25.8295 16.1426 25.6659 15.8434C25.6493 15.813 25.6338 15.7847 25.6193 15.7588L25.4145 15.3913C25.2558 15.1066 25.1211 14.8652 25 14.6555ZM22.9448 12.0829C23.3035 11.6145 23.9548 10.9378 25 10.9378C26.0452 10.9378 26.6966 11.6145 27.0552 12.0829C27.3976 12.5299 27.7424 13.1487 28.0958 13.7832C28.1119 13.812 28.128 13.8409 28.1441 13.8698L28.3489 14.2372C28.3964 14.3224 28.4338 14.3894 28.4665 14.4468C28.5234 14.4601 28.5896 14.4752 28.6724 14.4939L29.0701 14.5839C29.1027 14.5912 29.1353 14.5986 29.1678 14.606C29.8508 14.7603 30.5295 14.9136 31.0505 15.119C31.6258 15.3457 32.4056 15.7872 32.7062 16.7537C33.0014 17.7031 32.6288 18.5073 32.3034 19.0242C32.0023 19.5026 31.5446 20.0375 31.076 20.5852C31.0549 20.61 31.0337 20.6347 31.0125 20.6595L30.7413 20.9766C30.6695 21.0606 30.6153 21.124 30.5697 21.1788C30.5759 21.2545 30.5845 21.3427 30.5959 21.4606L30.6369 21.8836C30.64 21.9159 30.6431 21.9481 30.6463 21.9803C30.7175 22.7135 30.7863 23.422 30.761 23.9888C30.7345 24.5831 30.5919 25.4827 29.7853 26.095C28.9532 26.7267 28.0342 26.589 27.4515 26.422C26.9145 26.2682 26.2801 25.9758 25.6411 25.6814C25.6105 25.6673 25.5799 25.6532 25.5492 25.6391L25.1769 25.4676C25.1072 25.4355 25.0499 25.4092 25 25.3866C24.9501 25.4092 24.8929 25.4355 24.8232 25.4676L24.4508 25.6391C24.4202 25.6532 24.3896 25.6673 24.359 25.6814C23.72 25.9758 23.0855 26.2682 22.5486 26.422C21.9658 26.589 21.0468 26.7267 20.2147 26.095C19.4081 25.4827 19.2655 24.5831 19.239 23.9888C19.2138 23.422 19.2826 22.7135 19.3538 21.9803C19.3569 21.9481 19.3601 21.9159 19.3632 21.8836L19.4042 21.4606C19.4156 21.3427 19.4241 21.2545 19.4303 21.1788C19.3847 21.124 19.3306 21.0606 19.2587 20.9766L18.9876 20.6595C18.9664 20.6347 18.9452 20.61 18.924 20.5852C18.4554 20.0375 17.9978 19.5026 17.6966 19.0242C17.3712 18.5073 16.9986 17.7031 17.2939 16.7537C17.5944 15.7872 18.3742 15.3457 18.9495 15.119C19.4705 14.9136 20.1493 14.7603 20.8322 14.606C20.8648 14.5986 20.8974 14.5912 20.9299 14.5839L21.3276 14.4939C21.4104 14.4752 21.4766 14.4601 21.5336 14.4468C21.5663 14.3894 21.6037 14.3224 21.6512 14.2372L21.856 13.8698C21.8721 13.8409 21.8882 13.812 21.9042 13.7832C22.2577 13.1487 22.6025 12.5299 22.9448 12.0829Z" fill="#637381"/>
</svg>
