<svg width="21" height="20" viewBox="0 0 21 20" fill="none" xmlns="http://www.w3.org/2000/svg">
<path d="M10.7908 1.6665C10.7908 1.32133 10.5109 1.0415 10.1658 1.0415C9.82059 1.0415 9.54077 1.32133 9.54077 1.6665V4.99984C9.54077 5.34502 9.82059 5.62484 10.1658 5.62484C10.5109 5.62484 10.7908 5.34502 10.7908 4.99984V1.6665Z" fill="#637381"/>
<path d="M7.49235 3.66382C7.81031 3.52948 7.95917 3.16281 7.82483 2.84485C7.69049 2.52689 7.32382 2.37803 7.00586 2.51238C4.08937 3.74461 2.04077 6.63226 2.04077 9.99984C2.04077 14.4872 5.67846 18.1248 10.1658 18.1248C14.6531 18.1248 18.2908 14.4872 18.2908 9.99984C18.2908 6.63226 16.2422 3.74461 13.3257 2.51238C13.0077 2.37803 12.6411 2.52689 12.5067 2.84485C12.3724 3.16281 12.5212 3.52948 12.8392 3.66382C15.3093 4.70745 17.0408 7.15216 17.0408 9.99984C17.0408 13.7968 13.9627 16.8748 10.1658 16.8748C6.36881 16.8748 3.29077 13.7968 3.29077 9.99984C3.29077 7.15216 5.02227 4.70745 7.49235 3.66382Z" fill="#637381"/>
</svg>
