<svg id="Capa_1" data-name="Capa 1" xmlns="http://www.w3.org/2000/svg" viewBox="0 0 500 500"><defs><style>.cls-1{fill:#afd4f1;}.cls-2{fill:#7ca3d4;}.cls-3{fill:#fff;}.cls-4{font-size:39.82px;}.cls-4,.cls-6{fill:#211915;font-family:Mont-Bold, Mont;font-weight:700;}.cls-5{letter-spacing:-0.01em;}.cls-6{font-size:27.25px;}.cls-7{letter-spacing:0em;}.cls-8{letter-spacing:-0.01em;}</style></defs><path class="cls-1" d="M226.62,152.94c.81,4,2.55,6.45,7.33,6.6,3.94.12,7.9,1.47,11.74,2.62,16.62,5,24.45,15.15,24.47,32.43q.07,100.43-.06,200.86c-8.69,20.68-17.29,26.35-40.07,26.34-46.76,0-93.53-.28-140.29.06C70.05,422,55.88,415,49.62,395.41q-.09-101.32-.13-202.63c0-14,8.24-25,21.51-29.66,6.67-2.35,13.48-4.06,20.62-4.08,3.41-.21,8.24,1.72,8.44-4.11.22-6.39,4.43-5.46,8.41-5.47,28.65,0,57.3-.26,85.94,0,9.85.09,19.92-1.74,29.54,2l2.69,1.63Zm-65.83,73V226c-25.25,0-50.51.28-75.75-.15-9.75-.16-13,3.68-12.93,13.15q.48,51.51,0,103c-.09,9.42,3.08,13.26,12.88,13.2q74.73-.44,149.47.09c8.86.06,11.75-3,11.66-11.72q-.52-53,0-106c.09-8.7-2.7-11.95-11.61-11.78C209.94,226.22,185.36,225.93,160.79,225.93Z"/><path class="cls-2" d="M226.62,152.94l0,.18L224,151.49c-9.62-3.77-19.69-1.94-29.54-2-28.64-.26-57.29,0-85.94,0-4,0-8.19-.92-8.41,5.47-.2,5.83-5,3.9-8.44,4.11.31-3.7,1.09-8.95-3.73-8.92-9.87.06-8.31-6.22-8.3-12.14,0-11.44.12-22.89,0-34.33-.12-9.49,5-13.38,13.81-13.38q66.56-.06,133.09,0c8.91,0,13.66,4.41,13.51,13.76-.19,12.11-.38,24.25.09,36.34.26,6.81-.84,11.15-8.93,10.52C229.69,150.78,228.12,152.22,226.62,152.94Z"/><path class="cls-3" d="M160.79,225.93c24.57,0,49.15.29,73.72-.15,8.91-.17,11.7,3.08,11.61,11.78q-.52,53,0,106c.09,8.75-2.8,11.78-11.66,11.72q-74.75-.52-149.47-.09c-9.8.06-13-3.78-12.88-13.2q.48-51.51,0-103C72,229.54,75.29,225.7,85,225.86c25.24.43,50.5.15,75.75.15ZM171.19,309c12.77-5.83,25.68-11.34,38.24-17.58,10.64-5.28,15.06-18,10.58-28-5-11.32-16.41-16.51-28.31-11.59-13.23,5.48-25.95,12.16-38.9,18.32-14.27,6.67-28.8,12.85-42.73,20.16-10.71,5.64-14.09,17.38-9.36,27.64,5,10.92,16.38,16,27.78,11.21C143,323,157,315.76,171.19,309Z"/><path class="cls-3" d="M224,151.49l2.69,1.63Z"/><path class="cls-2" d="M139.27,287.11q10.13-9.81,20.25-19.62c1.16-1.13,1.23-.79,2,0q19.16,19.8,38.31,39.6a12.9,12.9,0,0,1,2.56,3.84,10.39,10.39,0,0,1,.79,3.85,9.62,9.62,0,0,1-.54,3.36,12.15,12.15,0,0,1-1.36,2.69c-1.43,2.15-3.48,3.68-5.25,5.49s-3.61,3.7-5.58,5.35a8.19,8.19,0,0,1-3.07,1.82,15.37,15.37,0,0,1-2.41.71,8.45,8.45,0,0,1-3.28-.07c-.75-.22-1.53-.4-2.27-.67a8.8,8.8,0,0,1-3.46-2.33q-7.77-8-15.53-16.05c-.68-.7-.68-.7-1.38,0-5.38,5.21-10.78,10.41-16.13,15.64a10.49,10.49,0,0,1-4.88,2.57,10,10,0,0,1-3.17.3,10.35,10.35,0,0,1-1.73-.33,9.48,9.48,0,0,1-1.56-.51,3.87,3.87,0,0,1-1.17-.89q-6.27-6.49-12.55-13a4.51,4.51,0,0,1-1.06-1.88,11.16,11.16,0,0,1-.62-3.11,13.19,13.19,0,0,1,.72-3.54,26.58,26.58,0,0,1,1.4-2.83,2.86,2.86,0,0,1,.76-.84Z"/><path class="cls-1" d="M144.59,274.51q-5.79,5.61-11.59,11.24c-.37.36-.59.39-1,0-4.33-4.51-8.71-9-13-13.54a7.73,7.73,0,0,1-1.68-3.81,9.61,9.61,0,0,1-.24-2.81,11,11,0,0,1,.6-3.17,14.93,14.93,0,0,1,4-5.45c2.58-2.46,5.09-5,7.71-7.42a10.87,10.87,0,0,1,3.67-2.15c.72-.27,1.48-.43,2.2-.69a5.75,5.75,0,0,1,2-.07,10.88,10.88,0,0,1,3.2.79,13.11,13.11,0,0,1,5.15,3.66c3.51,3.65,7.05,7.28,10.57,10.93.61.63.61.63,0,1.24Z"/><path class="cls-1" d="M176.25,275,165,263.42c-.54-.56-.54-.71,0-1.27,4.27-4.13,8.52-8.28,12.82-12.38a8,8,0,0,1,3.29-1.7,10.24,10.24,0,0,1,3.13-.62,12.41,12.41,0,0,1,4.23.85,5.93,5.93,0,0,1,2.13,1.51c3.63,3.67,7.2,7.4,10.8,11.1a8.76,8.76,0,0,1,2.15,4,12.88,12.88,0,0,1,.11,4.24,5.15,5.15,0,0,1-1,2.64,1,1,0,0,0-.19.41,3.19,3.19,0,0,1-.9,1.58q-6.63,6.41-13.22,12.84c-.38.37-.57.3-.91-.05Q181.88,280.8,176.25,275Z"/><text class="cls-4" transform="translate(300.4 239.83)"><tspan class="cls-5">U</tspan><tspan x="28.39" y="0">ps...</tspan></text><text class="cls-6" transform="translate(298.49 285.47)">imagen no<tspan x="0" y="32.7">enco</tspan><tspan class="cls-7" x="69.41" y="32.7">n</tspan><tspan x="86.77" y="32.7">t</tspan><tspan class="cls-8" x="98.48" y="32.7">r</tspan><tspan x="109.25" y="32.7">ada</tspan></text></svg>