<svg width="25" height="17" viewBox="0 0 25 17" fill="none" xmlns="http://www.w3.org/2000/svg">
<path d="M3.12496 10.0628L2.34371 8.50033H7.81246L7.18746 6.93783H2.08329L1.30204 5.37533H9.42704L8.80204 3.81283H1.15621L0.260376 2.25033H4.16663C4.16663 1.69779 4.38612 1.16789 4.77682 0.777186C5.16752 0.386486 5.69742 0.166992 6.24996 0.166992H18.75V4.33366H21.875L25 8.50033V13.7087H22.9166C22.9166 14.5375 22.5874 15.3323 22.0013 15.9184C21.4153 16.5044 20.6204 16.8337 19.7916 16.8337C18.9628 16.8337 18.168 16.5044 17.5819 15.9184C16.9959 15.3323 16.6666 14.5375 16.6666 13.7087H12.5C12.5 14.5375 12.1707 15.3323 11.5847 15.9184C10.9986 16.5044 10.2038 16.8337 9.37496 16.8337C8.54616 16.8337 7.7513 16.5044 7.16525 15.9184C6.5792 15.3323 6.24996 14.5375 6.24996 13.7087H4.16663V10.0628H3.12496ZM19.7916 15.2712C20.206 15.2712 20.6035 15.1065 20.8965 14.8135C21.1895 14.5205 21.3541 14.1231 21.3541 13.7087C21.3541 13.2943 21.1895 12.8968 20.8965 12.6038C20.6035 12.3108 20.206 12.1462 19.7916 12.1462C19.3772 12.1462 18.9798 12.3108 18.6868 12.6038C18.3937 12.8968 18.2291 13.2943 18.2291 13.7087C18.2291 14.1231 18.3937 14.5205 18.6868 14.8135C18.9798 15.1065 19.3772 15.2712 19.7916 15.2712ZM21.3541 5.89616H18.75V8.50033H23.3958L21.3541 5.89616ZM9.37496 15.2712C9.78936 15.2712 10.1868 15.1065 10.4798 14.8135C10.7728 14.5205 10.9375 14.1231 10.9375 13.7087C10.9375 13.2943 10.7728 12.8968 10.4798 12.6038C10.1868 12.3108 9.78936 12.1462 9.37496 12.1462C8.96056 12.1462 8.56313 12.3108 8.2701 12.6038C7.97708 12.8968 7.81246 13.2943 7.81246 13.7087C7.81246 14.1231 7.97708 14.5205 8.2701 14.8135C8.56313 15.1065 8.96056 15.2712 9.37496 15.2712Z" fill="white"/>
</svg>
