<svg width="21" height="20" viewBox="0 0 21 20" fill="none" xmlns="http://www.w3.org/2000/svg">
<path fill-rule="evenodd" clip-rule="evenodd" d="M18.1562 5.60184C18.1562 6.07523 17.8624 6.45898 17.5 6.45898L3.5 6.45898C3.13756 6.45898 2.84375 6.07523 2.84375 5.60184C2.84375 5.12845 3.13756 4.7447 3.5 4.7447L17.5 4.7447C17.8624 4.7447 18.1562 5.12845 18.1562 5.60184Z" fill="white"/>
<path fill-rule="evenodd" clip-rule="evenodd" d="M18.1562 9.76786C18.1562 10.2412 17.8624 10.625 17.5 10.625L3.5 10.625C3.13756 10.625 2.84375 10.2412 2.84375 9.76786C2.84375 9.29447 3.13756 8.91071 3.5 8.91071L17.5 8.91071C17.8624 8.91071 18.1562 9.29447 18.1562 9.76786Z" fill="white"/>
<path fill-rule="evenodd" clip-rule="evenodd" d="M18.1562 13.9339C18.1562 14.4073 17.8624 14.791 17.5 14.791L3.5 14.791C3.13756 14.791 2.84375 14.4073 2.84375 13.9339C2.84375 13.4605 3.13756 13.0767 3.5 13.0767L17.5 13.0767C17.8624 13.0767 18.1562 13.4605 18.1562 13.9339Z" fill="white"/>
</svg>
