<svg width="45" height="46" viewBox="0 0 45 46" fill="none" xmlns="http://www.w3.org/2000/svg">
<path fill-rule="evenodd" clip-rule="evenodd" d="M14.6875 16.7498C14.6875 12.4351 18.1853 8.93734 22.5 8.93734C26.8147 8.93734 30.3125 12.4351 30.3125 16.7498C30.3125 21.0646 26.8147 24.5623 22.5 24.5623C18.1853 24.5623 14.6875 21.0646 14.6875 16.7498ZM22.5 12.0623C19.9112 12.0623 17.8125 14.161 17.8125 16.7498C17.8125 19.3387 19.9112 21.4373 22.5 21.4373C25.0888 21.4373 27.1875 19.3387 27.1875 16.7498C27.1875 14.161 25.0888 12.0623 22.5 12.0623Z" fill="white"/>
<path fill-rule="evenodd" clip-rule="evenodd" d="M0.104172 22.9998C0.104172 10.631 10.1311 0.604004 22.5 0.604004C34.8689 0.604004 44.8958 10.631 44.8958 22.9998C44.8958 35.3687 34.8689 45.3957 22.5 45.3957C10.1311 45.3957 0.104172 35.3687 0.104172 22.9998ZM22.5 3.729C11.857 3.729 3.22917 12.3568 3.22917 22.9998C3.22917 28.3031 5.3714 33.1061 8.83772 36.5905C9.21354 34.5632 9.95196 32.6517 11.4341 31.1146C13.6511 28.8155 17.1962 27.6873 22.4999 27.6873C27.8036 27.6873 31.3487 28.8155 33.5657 31.1146C35.0479 32.6517 35.7863 34.5633 36.1621 36.5907C39.6285 33.1062 41.7708 28.3032 41.7708 22.9998C41.7708 12.3568 33.143 3.729 22.5 3.729ZM33.3202 38.9486C33.1079 36.4237 32.5597 34.5734 31.3162 33.2838C29.9631 31.8806 27.4561 30.8123 22.4999 30.8123C17.5437 30.8123 15.0367 31.8806 13.6836 33.2838C12.4401 34.5733 11.8919 36.4237 11.6796 38.9484C14.7643 41.0453 18.489 42.2707 22.5 42.2707C26.5109 42.2707 30.2356 41.0453 33.3202 38.9486Z" fill="white"/>
</svg>
