<svg width="31" height="32" viewBox="0 0 31 32" fill="none" xmlns="http://www.w3.org/2000/svg">
<path fill-rule="evenodd" clip-rule="evenodd" d="M0.0556041 1.31577C0.178553 0.946921 0.577232 0.747581 0.946079 0.87053L1.37717 1.01423L1.41713 1.02755C2.45726 1.37424 3.29457 1.65333 3.94489 1.95587C4.61995 2.26991 5.15891 2.6374 5.56214 3.19685C5.96536 3.75629 6.14356 4.38381 6.22801 5.12353C6.24922 5.30929 6.2649 5.50659 6.27649 5.71622H24.2386L24.2996 5.71622C25.9199 5.71619 27.2162 5.71618 28.1942 5.86096C29.1977 6.00952 30.0409 6.33369 30.5659 7.12989C31.0909 7.9261 31.0568 8.82879 30.798 9.8097C30.5458 10.7657 30.0351 11.9572 29.3969 13.4465L29.3728 13.5025L28.6754 15.1298L28.6605 15.1647L28.6604 15.1648C28.3657 15.8526 28.1225 16.42 27.8736 16.8625C27.6121 17.3272 27.3146 17.7106 26.882 17.9959C26.4494 18.2812 25.9798 18.4036 25.4496 18.4608C24.9449 18.5153 24.3275 18.5153 23.5792 18.5153H23.5792H23.5412H6.71548C6.90145 19.1331 7.16567 19.5846 7.53304 19.952C8.09537 20.5143 8.85486 20.835 10.1062 21.0032C11.3778 21.1742 13.0479 21.1757 15.3692 21.1757H28.3876C28.7764 21.1757 29.0916 21.4909 29.0916 21.8797C29.0916 22.2685 28.7764 22.5836 28.3876 22.5836H15.3692H15.3152H15.3152H15.3151H15.3151H15.3151C13.0595 22.5837 11.2948 22.5837 9.9186 22.3986C8.51112 22.2094 7.405 21.8151 6.53746 20.9476C5.66991 20.08 5.27563 18.9739 5.0864 17.5664C4.90136 16.1902 4.90137 14.4254 4.90139 12.1698V12.1159V7.85726C4.90139 6.7089 4.90032 5.90674 4.82914 5.28324C4.76001 4.67772 4.63104 4.313 4.41994 4.0201C4.20883 3.7272 3.9036 3.48952 3.35102 3.23246C2.78202 2.96776 2.02136 2.71308 0.931932 2.34994L0.500841 2.20624C0.131995 2.08329 -0.0673448 1.68461 0.0556041 1.31577ZM6.4485 17.1073H23.5412C24.337 17.1073 24.8782 17.1064 25.2985 17.061C25.7018 17.0175 25.9282 16.9383 26.1069 16.8205C26.2857 16.7026 26.4476 16.5256 26.6465 16.1721C26.8538 15.8037 27.0678 15.3066 27.3813 14.5752L28.0787 12.9479C28.7465 11.3896 29.2142 10.2938 29.4366 9.45057C29.6556 8.62033 29.589 8.20599 29.3905 7.90497C29.192 7.60394 28.8374 7.37949 27.988 7.25375C27.1254 7.12603 25.9339 7.12418 24.2386 7.12418H6.3085C6.30936 7.34452 6.30935 7.57467 6.30935 7.81511V7.81512V7.81513V7.81514V7.81515V7.85726V12.1159C6.30935 14.2755 6.31064 15.8715 6.4485 17.1073ZM7.93662 28.3889C7.93662 29.3482 8.71429 30.1259 9.67359 30.1259C10.6329 30.1259 11.4106 29.3482 11.4106 28.3889C11.4106 27.4296 10.6329 26.6519 9.67359 26.6519C8.71429 26.6519 7.93662 27.4296 7.93662 28.3889ZM9.67359 31.5338C7.93669 31.5338 6.52866 30.1258 6.52866 28.3889C6.52866 26.652 7.93669 25.2439 9.67359 25.2439C11.4105 25.2439 12.8185 26.652 12.8185 28.3889C12.8185 30.1258 11.4105 31.5338 9.67359 31.5338ZM24.3193 30.126C23.36 30.126 22.5823 29.3483 22.5823 28.389C22.5823 27.4297 23.36 26.652 24.3193 26.652C25.2786 26.652 26.0563 27.4297 26.0563 28.389C26.0563 29.3483 25.2786 30.126 24.3193 30.126ZM21.1744 28.389C21.1744 30.1259 22.5824 31.5339 24.3193 31.5339C26.0562 31.5339 27.4643 30.1259 27.4643 28.389C27.4643 26.6521 26.0562 25.2441 24.3193 25.2441C22.5824 25.2441 21.1744 26.6521 21.1744 28.389ZM9.7833 11.3021C9.7833 10.9133 10.0985 10.5981 10.4873 10.5981H15.3692C15.758 10.5981 16.0732 10.9133 16.0732 11.3021C16.0732 11.6909 15.758 12.0061 15.3692 12.0061H10.4873C10.0985 12.0061 9.7833 11.6909 9.7833 11.3021Z" fill="white"/>
</svg>
