<svg width="43" height="42" viewBox="0 0 43 42" fill="none" xmlns="http://www.w3.org/2000/svg">
<path fill-rule="evenodd" clip-rule="evenodd" d="M18.57 0.830737C20.423 -0.0549072 22.5771 -0.0549072 24.43 0.830737C25.235 1.21549 25.9726 1.84465 26.994 2.71582C27.047 2.76104 27.1007 2.80691 27.1553 2.85343C27.6514 3.27613 27.8076 3.40609 27.9656 3.51203C28.3676 3.78148 28.8191 3.96849 29.2939 4.06223C29.4806 4.09908 29.6829 4.11764 30.3326 4.16948C30.4041 4.17518 30.4745 4.18077 30.544 4.18628C31.8822 4.29247 32.8486 4.36916 33.6899 4.66631C35.6264 5.35029 37.1496 6.87348 37.8335 8.80995C38.1307 9.65122 38.2074 10.6177 38.3136 11.9559C38.3191 12.0253 38.3247 12.0958 38.3304 12.1673C38.3822 12.8169 38.4008 13.0193 38.4376 13.206C38.5314 13.6808 38.7184 14.1322 38.9878 14.5342C39.0938 14.6923 39.2237 14.8485 39.6464 15.3445C39.693 15.3991 39.7388 15.4529 39.7841 15.5059C40.6552 16.5273 41.2844 17.2649 41.6691 18.0698C42.5548 19.9228 42.5548 22.0769 41.6691 23.9298C41.2844 24.7348 40.6552 25.4724 39.7841 26.4937C39.7389 26.5468 39.693 26.6005 39.6464 26.6552C39.2237 27.1512 39.0938 27.3074 38.9878 27.4654C38.7184 27.8674 38.5314 28.3189 38.4376 28.7937C38.4008 28.9804 38.3822 29.1828 38.3304 29.8324C38.3247 29.9039 38.3191 29.9743 38.3136 30.0438C38.2074 31.382 38.1307 32.3485 37.8335 33.1897C37.1496 35.1262 35.6264 36.6494 33.6899 37.3334C32.8486 37.6305 31.8822 37.7072 30.544 37.8134C30.4745 37.8189 30.4041 37.8245 30.3326 37.8302C29.6829 37.882 29.4806 37.9006 29.2939 37.9375C28.8191 38.0312 28.3676 38.2182 27.9656 38.4877C27.8076 38.5936 27.6513 38.7236 27.1553 39.1462C27.1007 39.1928 27.047 39.2387 26.9939 39.2839C25.9726 40.155 25.235 40.7842 24.43 41.1689C22.5771 42.0546 20.423 42.0546 18.57 41.1689C17.765 40.7842 17.0274 40.155 16.0061 39.2838C15.9531 39.2386 15.8993 39.1928 15.8447 39.1462C15.3487 38.7236 15.1925 38.5936 15.0344 38.4877C14.6324 38.2182 14.1809 38.0312 13.7061 37.9375C13.5195 37.9006 13.3171 37.882 12.6675 37.8302C12.596 37.8245 12.5255 37.8189 12.4561 37.8134C11.1179 37.7072 10.1514 37.6305 9.31013 37.3334C7.37366 36.6494 5.85048 35.1262 5.16649 33.1897C4.86934 32.3485 4.79265 31.382 4.68647 30.0438C4.68096 29.9743 4.67536 29.9039 4.66966 29.8324C4.61782 29.1827 4.59927 28.9804 4.56241 28.7937C4.46867 28.3189 4.28166 27.8674 4.01221 27.4654C3.90628 27.3074 3.77631 27.1512 3.35362 26.6552C3.3071 26.6006 3.26123 26.5468 3.21601 26.4938C2.34484 25.4724 1.71568 24.7348 1.33092 23.9298C0.445276 22.0769 0.445276 19.9228 1.33092 18.0698C1.71567 17.2649 2.34483 16.5272 3.216 15.5059C3.26122 15.4529 3.30709 15.3991 3.35362 15.3445C3.77631 14.8485 3.90627 14.6923 4.01221 14.5343C4.28166 14.1322 4.46867 13.6808 4.56241 13.206C4.59927 13.0193 4.61782 12.8169 4.66966 12.1673C4.67536 12.0958 4.68096 12.0253 4.68647 11.9559C4.79265 10.6177 4.86934 9.65122 5.16649 8.80995C5.85048 6.87348 7.37366 5.35029 9.31013 4.66631C10.1514 4.36916 11.1179 4.29247 12.4561 4.18628C12.5255 4.18077 12.596 4.17518 12.6675 4.16948C13.3171 4.11764 13.5195 4.09908 13.7061 4.06223C14.1809 3.96849 14.6324 3.78148 15.0344 3.51203C15.1925 3.40609 15.3487 3.27613 15.8447 2.85343C15.8993 2.80691 15.9531 2.76104 16.0061 2.71582C17.0274 1.84465 17.765 1.21549 18.57 0.830737ZM23.0777 3.66004C22.08 3.18315 20.9201 3.18315 19.9223 3.66004C19.5366 3.84441 19.13 4.17383 17.8787 5.24019C17.8581 5.2577 17.8379 5.27499 17.8178 5.29205C17.4072 5.64214 17.1074 5.89769 16.7804 6.11691C16.0338 6.61732 15.1953 6.96463 14.3135 7.13871C13.9272 7.21498 13.5346 7.24624 12.9966 7.28906C12.9704 7.29115 12.9439 7.29326 12.9169 7.29541C11.2781 7.42619 10.7577 7.48076 10.3545 7.62315C9.31181 7.99145 8.49163 8.81163 8.12333 9.85434C7.98094 10.2575 7.92637 10.7779 7.79559 12.4168C7.79344 12.4437 7.79133 12.4702 7.78924 12.4964C7.74642 13.0344 7.71516 13.427 7.6389 13.8133C7.46481 14.6951 7.11751 15.5336 6.6171 16.2802C6.39787 16.6073 6.14232 16.907 5.79222 17.3177C5.77516 17.3377 5.75788 17.358 5.74037 17.3785C4.67401 18.6298 4.34459 19.0364 4.16022 19.4221C3.68333 20.4199 3.68333 21.5798 4.16022 22.5775C4.34459 22.9633 4.67401 23.3699 5.74037 24.6212C5.75789 24.6417 5.77517 24.662 5.79223 24.682C6.14232 25.0927 6.39787 25.3924 6.6171 25.7195C7.11751 26.4661 7.46481 27.3046 7.6389 28.1863C7.71516 28.5726 7.74642 28.9653 7.78924 29.5032C7.79133 29.5295 7.79344 29.556 7.79559 29.5829C7.92637 31.2218 7.98094 31.7422 8.12333 32.1453C8.49163 33.1881 9.31181 34.0082 10.3545 34.3765C10.7577 34.5189 11.2781 34.5735 12.9169 34.7043L12.9966 34.7106C13.5346 34.7534 13.9272 34.7847 14.3135 34.861C15.1953 35.0351 16.0338 35.3824 16.7804 35.8828C17.1074 36.102 17.4072 36.3575 17.8179 36.7076L17.8787 36.7595C19.13 37.8258 19.5366 38.1553 19.9223 38.3396C20.9201 38.8165 22.08 38.8165 23.0777 38.3396C23.4635 38.1553 23.8701 37.8259 25.1214 36.7595L25.1822 36.7076C25.5929 36.3575 25.8926 36.102 26.2197 35.8828C26.9663 35.3824 27.8048 35.0351 28.6865 34.861C29.0728 34.7847 29.4655 34.7534 30.0034 34.7106L30.0831 34.7043C31.7219 34.5735 32.2424 34.5189 32.6455 34.3765C33.6882 34.0082 34.5084 33.1881 34.8767 32.1453C35.0191 31.7422 35.0737 31.2218 35.2045 29.5829L35.2108 29.5032C35.2536 28.9653 35.2849 28.5726 35.3612 28.1863C35.5352 27.3046 35.8825 26.4661 36.3829 25.7195C36.6022 25.3924 36.8577 25.0927 37.2078 24.682L37.2597 24.6212C38.326 23.3699 38.6555 22.9633 38.8398 22.5775C39.3167 21.5798 39.3167 20.4199 38.8398 19.4221C38.6555 19.0364 38.326 18.6298 37.2597 17.3785L37.2078 17.3176C36.8577 16.907 36.6022 16.6072 36.3829 16.2802C35.8825 15.5336 35.5352 14.6951 35.3612 13.8133C35.2849 13.427 35.2536 13.0344 35.2108 12.4964L35.2045 12.4168C35.0737 10.7779 35.0191 10.2575 34.8767 9.85434C34.5084 8.81163 33.6882 7.99145 32.6455 7.62315C32.2424 7.48076 31.7219 7.42619 30.0831 7.29541C30.0562 7.29326 30.0296 7.29115 30.0034 7.28906C29.4655 7.24624 29.0728 7.21498 28.6865 7.13871C27.8048 6.96463 26.9663 6.61732 26.2197 6.11691C25.8926 5.89769 25.5928 5.64213 25.1822 5.29203C25.1622 5.27498 25.1419 5.2577 25.1214 5.24019C23.8701 4.17383 23.4635 3.84441 23.0777 3.66004Z" fill="white"/>
<path fill-rule="evenodd" clip-rule="evenodd" d="M28.8805 13.6194C29.4928 14.2317 29.4928 15.2245 28.8805 15.8368L16.337 28.3803C15.7247 28.9926 14.7319 28.9926 14.1196 28.3803C13.5073 27.768 13.5073 26.7752 14.1196 26.1629L26.6631 13.6194C27.2754 13.0071 28.2681 13.0071 28.8805 13.6194Z" fill="white"/>
<path d="M28.817 26.2263C28.817 27.3809 27.8811 28.3169 26.7265 28.3169C25.5719 28.3169 24.6359 27.3809 24.6359 26.2263C24.6359 25.0717 25.5719 24.1357 26.7265 24.1357C27.8811 24.1357 28.817 25.0717 28.817 26.2263Z" fill="white"/>
<path d="M18.3642 15.7734C18.3642 16.928 17.4282 17.864 16.2736 17.864C15.119 17.864 14.183 16.928 14.183 15.7734C14.183 14.6188 15.119 13.6828 16.2736 13.6828C17.4282 13.6828 18.3642 14.6188 18.3642 15.7734Z" fill="white"/>
</svg>
