<svg width="12" height="4" viewBox="0 0 15 7" fill="none" xmlns="http://www.w3.org/2000/svg">
<path d="M1.08498 1.20572C1.08498 1.13512 1.12662 1.04686 1.18907 0.9939C1.33479 0.870336 1.56378 0.870336 1.7095 0.976248L7.28851 5.42456C7.3926 5.51282 7.57995 5.51282 7.70486 5.42456L13.2839 0.976249C13.4296 0.852685 13.6586 0.870336 13.8043 0.993901C13.95 1.11746 13.9292 1.31164 13.7835 1.4352L8.20447 5.88351C7.80894 6.1836 7.18443 6.1836 6.80972 5.88351L1.20989 1.4352C1.12662 1.36459 1.08498 1.29398 1.08498 1.20572Z" fill="white"/>
<path fill-rule="evenodd" clip-rule="evenodd" d="M2.15466 0.555824L7.49668 4.81518L12.8217 0.569372C13.2751 0.193374 13.9224 0.295214 14.2753 0.594475C14.7291 0.97925 14.6098 1.53339 14.2545 1.83461L14.24 1.8469L8.64879 6.3046C8.0078 6.79091 6.99159 6.80521 6.35339 6.29502C6.35303 6.29474 6.35374 6.29531 6.35339 6.29502L0.738596 1.83483C0.564259 1.687 0.418833 1.48002 0.418833 1.20572C0.418833 0.987009 0.529232 0.754566 0.71803 0.594474C1.11892 0.254537 1.74283 0.256496 2.14303 0.547365L2.15466 0.555824ZM6.80972 5.88351C7.18443 6.1836 7.80894 6.1836 8.20447 5.88351L13.7835 1.4352C13.9292 1.31164 13.95 1.11746 13.8043 0.993901C13.6586 0.870336 13.4296 0.852685 13.2839 0.976249L7.70486 5.42456C7.57995 5.51282 7.3926 5.51282 7.28851 5.42456L1.7095 0.976248C1.56378 0.870336 1.33479 0.870336 1.18907 0.9939C1.12662 1.04686 1.08498 1.13512 1.08498 1.20572C1.08498 1.29398 1.12662 1.36459 1.20989 1.4352L6.80972 5.88351Z" fill="white"/>
</svg>
