<svg width="45" height="46" viewBox="0 0 45 46" fill="none" xmlns="http://www.w3.org/2000/svg">
<path fill-rule="evenodd" clip-rule="evenodd" d="M22.5 4.04252C22.2522 4.41022 21.9469 4.95227 21.4924 5.7676L21.2193 6.25748C21.1991 6.29386 21.1781 6.33187 21.1565 6.37123C20.9303 6.78227 20.623 7.34065 20.1155 7.72587C19.5987 8.11818 18.9755 8.25537 18.5299 8.35346C18.4876 8.36277 18.4469 8.37173 18.4081 8.38052L17.8778 8.50051C16.9086 8.71978 16.3047 8.86014 15.8989 9.002C16.1498 9.379 16.571 9.87697 17.2542 10.6759L17.6158 11.0987C17.6424 11.1298 17.6701 11.1619 17.6987 11.195C18.0065 11.5513 18.416 12.0253 18.6052 12.634C18.7925 13.2363 18.7291 13.8594 18.6807 14.3357C18.6761 14.3802 18.6717 14.4234 18.6677 14.4652L18.613 15.0292C18.5154 16.0368 18.4552 16.6886 18.457 17.1497C18.8574 17.0077 19.4059 16.7586 20.2429 16.3732L20.7394 16.1446C20.776 16.1278 20.8142 16.1099 20.8541 16.0912C21.2662 15.8983 21.851 15.6247 22.5 15.6247C23.149 15.6247 23.7338 15.8983 24.1459 16.0912C24.1858 16.1099 24.224 16.1278 24.2606 16.1446L24.7571 16.3732C25.5941 16.7586 26.1426 17.0077 26.543 17.1497C26.5448 16.6886 26.4846 16.0368 26.387 15.0292L26.3323 14.4652C26.3282 14.4234 26.3239 14.3802 26.3193 14.3357C26.2709 13.8594 26.2075 13.2363 26.3948 12.634C26.584 12.0253 26.9935 11.5513 27.3013 11.195C27.3299 11.1619 27.3576 11.1298 27.3842 11.0987L27.7458 10.6759C28.429 9.87696 28.8502 9.379 29.1011 9.002C28.6953 8.86014 28.0914 8.71978 27.1222 8.50051L26.5919 8.38052C26.5531 8.37173 26.5124 8.36277 26.4701 8.35346C26.0245 8.25537 25.4012 8.11818 24.8845 7.72587C24.377 7.34064 24.0697 6.78226 23.8435 6.37122C23.8219 6.33186 23.8009 6.29386 23.7807 6.25748L23.5076 5.7676C23.0531 4.95227 22.7478 4.41022 22.5 4.04252ZM26.9853 17.2711C26.9876 17.2711 26.9889 17.2712 26.9889 17.2713L26.9853 17.2711ZM18.0111 17.2713C18.0111 17.2712 18.0124 17.2711 18.0147 17.2711L18.0111 17.2713ZM20.1732 1.92659C20.6225 1.33986 21.3562 0.604004 22.5 0.604004C23.6438 0.604004 24.3775 1.33986 24.8268 1.92659C25.2594 2.49158 25.7023 3.28632 26.184 4.15066C26.2017 4.18236 26.2194 4.21415 26.2371 4.24603L26.5102 4.73591C26.5869 4.87345 26.6462 4.97977 26.6989 5.07091C26.7342 5.13216 26.762 5.17844 26.7843 5.21414C26.8194 5.22382 26.8637 5.23531 26.9205 5.24915C27.0185 5.27299 27.1324 5.29881 27.2816 5.33257L27.8119 5.45255C27.848 5.46073 27.8841 5.46889 27.9201 5.47702C28.8511 5.68752 29.7201 5.88399 30.3764 6.14259C31.0874 6.4228 31.9465 6.92782 32.2775 7.9923C32.6032 9.03975 32.2022 9.94403 31.7971 10.5875C31.4165 11.1921 30.829 11.879 30.1907 12.6251L29.7592 13.1297C29.6577 13.2484 29.5794 13.34 29.513 13.4202C29.4584 13.486 29.4208 13.5336 29.3938 13.5694C29.3973 13.6855 29.4122 13.8488 29.4427 14.1638L29.5077 14.8339C29.6045 15.8323 29.693 16.7436 29.661 17.4613C29.6278 18.207 29.4519 19.205 28.5655 19.8779C27.6536 20.5701 26.6347 20.4351 25.9121 20.2281C25.2357 20.0343 24.4231 19.66 23.5518 19.2586C23.518 19.243 23.4841 19.2274 23.4501 19.2118L22.9536 18.9832C22.814 18.9189 22.7071 18.8697 22.6143 18.8288C22.5685 18.8086 22.531 18.7926 22.5 18.7798C22.4689 18.7926 22.4315 18.8086 22.3857 18.8288C22.2929 18.8697 22.186 18.9189 22.0464 18.9832L21.5499 19.2118C21.5159 19.2274 21.482 19.243 21.4482 19.2586C20.5769 19.66 19.7643 20.0343 19.0879 20.2281C18.3653 20.4351 17.3464 20.5701 16.4345 19.8779C15.5481 19.205 15.3722 18.207 15.339 17.4613C15.307 16.7436 15.3954 15.8323 15.4923 14.834C15.4957 14.7987 15.4992 14.7633 15.5026 14.7278L15.5573 14.1638C15.5878 13.8488 15.6027 13.6855 15.6062 13.5694C15.5792 13.5336 15.5416 13.486 15.487 13.4202C15.4206 13.34 15.3423 13.2484 15.2408 13.1297L14.8792 12.7069C14.8558 12.6796 14.8325 12.6523 14.8092 12.6251C14.171 11.8789 13.5835 11.1921 13.2029 10.5875C12.7978 9.94403 12.3968 9.03975 12.7225 7.9923C13.0535 6.92782 13.9126 6.4228 14.6236 6.14259C15.2799 5.88399 16.1489 5.68752 17.0799 5.47703C17.1159 5.46889 17.152 5.46073 17.1881 5.45255L17.7184 5.33257C17.8676 5.29881 17.9815 5.27299 18.0795 5.24915C18.1363 5.23531 18.1806 5.22383 18.2157 5.21415C18.238 5.17844 18.2657 5.13217 18.3011 5.07091C18.3538 4.97977 18.4131 4.87345 18.4898 4.73592L18.7629 4.24603C18.7806 4.21415 18.7983 4.18236 18.816 4.15066C19.2977 3.28632 19.7406 2.49158 20.1732 1.92659ZM5.83333 15.0865C5.94202 15.2872 6.17339 15.6968 6.55318 15.9851C6.96132 16.2949 7.45122 16.3981 7.6548 16.441C7.67515 16.4453 7.69264 16.4489 7.7069 16.4522L7.7498 16.4619L7.6817 16.5415C7.67124 16.5537 7.65862 16.5681 7.64421 16.5845C7.50136 16.7473 7.18203 17.1111 7.0347 17.5849C6.88939 18.0522 6.94175 18.5307 6.96568 18.7494C6.96812 18.7717 6.97026 18.7913 6.97187 18.8079L6.97412 18.831C6.77765 18.737 6.33224 18.531 5.83333 18.531C5.33442 18.531 4.88901 18.737 4.69254 18.831L4.69479 18.8079C4.6964 18.7913 4.69854 18.7717 4.70098 18.7494C4.72491 18.5307 4.77728 18.0522 4.63196 17.5849C4.48463 17.1111 4.1653 16.7473 4.02245 16.5845C4.00804 16.5681 3.99542 16.5537 3.98496 16.5415L3.91686 16.4619L3.95976 16.4522C3.97402 16.4489 3.99151 16.4453 4.01186 16.441C4.21545 16.3981 4.70534 16.2949 5.11348 15.9851C5.49327 15.6968 5.72465 15.2872 5.83333 15.0865ZM3.61495 14.9282L3.31935 13.6217L3.61495 14.9282ZM4.59583 20.1506C4.59627 20.1537 4.59643 20.1553 4.59639 20.1553L4.59583 20.1506ZM7.07027 20.1553C7.07024 20.1553 7.07039 20.1537 7.07083 20.1506L7.07027 20.1553ZM4.04968 11.9882C4.31773 11.6382 4.88676 11.0207 5.83333 11.0207C6.77991 11.0207 7.34893 11.6382 7.61699 11.9882C7.86924 12.3176 8.11643 12.7615 8.34386 13.17C8.35741 13.1943 8.37088 13.2185 8.38429 13.2425L8.48565 13.4244L8.66167 13.4642C8.68848 13.4703 8.71552 13.4764 8.74275 13.4825C9.18212 13.5817 9.67177 13.6922 10.058 13.8444C10.4975 14.0176 11.198 14.3956 11.4681 15.2641C11.7329 16.1155 11.3887 16.8196 11.143 17.2099C10.9212 17.5624 10.5925 17.9463 10.2908 18.2989C10.2729 18.3197 10.2551 18.3405 10.2375 18.3611L10.0854 18.5389L10.1096 18.7885C10.1122 18.8155 10.1149 18.8427 10.1175 18.8699C10.1635 19.3422 10.2128 19.8491 10.1943 20.2653C10.1746 20.7082 10.0652 21.5094 9.33844 22.0611C8.58614 22.6322 7.76704 22.4919 7.32418 22.365C6.92618 22.2509 6.46879 22.04 6.05785 21.8506C6.03226 21.8388 6.00685 21.827 5.98165 21.8154L5.83333 21.7472L5.68501 21.8154C5.65981 21.827 5.6344 21.8388 5.60882 21.8506C5.19788 22.04 4.74049 22.2509 4.34248 22.365C3.89963 22.4919 3.08053 22.6322 2.32822 22.0611C1.60141 21.5094 1.49208 20.7082 1.47235 20.2653C1.45381 19.8491 1.50315 19.3422 1.54911 18.8699C1.55177 18.8427 1.55441 18.8155 1.55703 18.7885L1.58121 18.5389L1.4292 18.3611C1.41155 18.3405 1.39377 18.3197 1.3759 18.2989C1.07412 17.9463 0.745512 17.5624 0.523615 17.2099C0.277945 16.8196 -0.0662016 16.1155 0.198566 15.2641C0.468632 14.3956 1.16914 14.0176 1.60871 13.8444C1.99489 13.6922 2.48454 13.5817 2.92391 13.4825C2.95114 13.4764 2.97818 13.4703 3.00499 13.4642L3.18101 13.4244L3.28237 13.2425C3.29577 13.2185 3.30925 13.1943 3.32279 13.17C3.55023 12.7615 3.79742 12.3176 4.04968 11.9882ZM39.1667 15.0865C39.2753 15.2872 39.5067 15.6968 39.8865 15.9851C40.2947 16.2949 40.7845 16.3981 40.9881 16.441C41.0085 16.4453 41.026 16.4489 41.0402 16.4522L41.0831 16.4619L41.015 16.5415C41.0046 16.5537 40.992 16.5681 40.9776 16.5845C40.8347 16.7473 40.5154 17.1111 40.368 17.5849C40.2227 18.0522 40.2751 18.5307 40.299 18.7494C40.3015 18.7717 40.3036 18.7913 40.3052 18.8079L40.3075 18.831C40.111 18.737 39.6656 18.531 39.1667 18.531C38.6678 18.531 38.2224 18.737 38.0259 18.831L38.0281 18.8079C38.0297 18.7913 38.0319 18.7717 38.0343 18.7494C38.0582 18.5307 38.1106 18.0522 37.9653 17.5849C37.818 17.1111 37.4986 16.7473 37.3558 16.5845C37.3414 16.5681 37.3288 16.5537 37.3183 16.5415L37.2502 16.4619L37.2931 16.4522C37.3074 16.4489 37.3248 16.4453 37.3452 16.441C37.5488 16.3981 38.0387 16.2949 38.4468 15.9851C38.8266 15.6968 39.058 15.2872 39.1667 15.0865ZM37.9292 20.1506C37.9296 20.1539 37.9298 20.1555 37.9297 20.1553L37.9292 20.1506ZM37.383 11.9882C37.6511 11.6382 38.2201 11.0207 39.1667 11.0207C40.1132 11.0207 40.6823 11.6382 40.9503 11.9882C41.2026 12.3176 41.4498 12.7615 41.6772 13.17C41.6907 13.1943 41.7042 13.2185 41.7176 13.2425L41.819 13.4244L41.995 13.4642C42.0218 13.4703 42.0489 13.4764 42.0761 13.4825C42.5155 13.5817 43.0051 13.6922 43.3913 13.8444C43.8309 14.0176 44.5314 14.3956 44.8014 15.2641C45.0662 16.1155 44.7221 16.8196 44.4764 17.2099C44.2545 17.5624 43.9259 17.9463 43.6241 18.2989C43.6062 18.3198 43.5884 18.3405 43.5708 18.3611L43.4188 18.5389L43.443 18.7885C43.4456 18.8155 43.4482 18.8427 43.4509 18.8699C43.4968 19.3422 43.5462 19.8491 43.5276 20.2653C43.5079 20.7082 43.3986 21.5094 42.6718 22.0611C41.9195 22.6322 41.1004 22.4919 40.6575 22.365C40.2595 22.2509 39.8022 22.0401 39.3912 21.8506C39.3656 21.8388 39.3402 21.8271 39.315 21.8154L39.1667 21.7472L39.0183 21.8154C38.9932 21.827 38.9678 21.8388 38.9422 21.8505C38.5312 22.04 38.0738 22.2509 37.6758 22.365C37.233 22.4919 36.4139 22.6322 35.6616 22.0611C34.9347 21.5094 34.8254 20.7082 34.8057 20.2653C34.7872 19.8491 34.8365 19.3422 34.8825 18.8699C34.8851 18.8427 34.8877 18.8155 34.8904 18.7885L34.9145 18.5389L34.7625 18.3611C34.7449 18.3405 34.7271 18.3197 34.7092 18.2988C34.4074 17.9463 34.0788 17.5624 33.857 17.2099C33.6113 16.8197 33.2671 16.1155 33.5319 15.2641C33.802 14.3956 34.5025 14.0176 34.942 13.8444C35.3282 13.6922 35.8179 13.5817 36.2572 13.4825C36.2845 13.4764 36.3115 13.4703 36.3383 13.4642L36.5143 13.4244L36.6157 13.2425C36.6291 13.2185 36.6426 13.1943 36.6561 13.17C36.8836 12.7615 37.1308 12.3176 37.383 11.9882ZM40.4036 20.1553C40.4036 20.1552 40.4037 20.1535 40.4042 20.1506L40.4036 20.1553ZM15.5915 28.1002C19.4786 27.3471 23.6397 27.5161 27.0068 29.5244C27.4797 29.8065 27.923 30.1579 28.3098 30.5924C29.0929 31.4719 29.4973 32.5651 29.5164 33.6611C29.9149 33.4041 30.314 33.1186 30.7195 32.8123L34.4845 29.9682C36.369 28.5446 39.1078 28.5444 40.9926 29.9675C42.7342 31.2825 43.4285 33.6426 42.1818 35.6409C41.2957 37.0613 39.9612 39.0258 38.6033 40.2835C37.2305 41.555 35.2768 42.6239 33.7989 43.3373C32.0042 44.2036 30.0658 44.6825 28.1808 44.9876C24.3283 45.6112 20.3196 45.5158 16.5104 44.731C14.5637 44.3299 12.5407 44.1215 10.5415 44.1215H5.83333C4.97039 44.1215 4.27083 43.4219 4.27083 42.559C4.27083 41.696 4.97039 40.9965 5.83333 40.9965H10.5415C12.7543 40.9965 14.9885 41.2268 17.141 41.6703C20.5827 42.3793 24.2085 42.4649 27.6815 41.9027C29.4084 41.6232 31.021 41.2081 32.4406 40.523C33.8643 39.8357 35.4651 38.9306 36.4798 37.9908C37.5059 37.0405 38.6543 35.3913 39.5304 33.9868C39.7948 33.563 39.7583 32.9513 39.1096 32.4615C38.3393 31.8799 37.1382 31.88 36.3681 32.4617L32.6031 35.3058C31.1001 36.4412 29.2502 37.6558 26.9556 38.0218C26.7241 38.0587 26.483 38.0925 26.2328 38.1223C26.1134 38.1439 25.9892 38.1581 25.8609 38.1629C24.6894 38.2793 23.3328 38.3064 21.836 38.1651C20.9768 38.0839 20.3461 37.3217 20.4273 36.4626C20.5084 35.6035 21.2706 34.9728 22.1297 35.0539C23.4369 35.1773 24.6096 35.1501 25.6046 35.0479C25.6248 35.0459 25.6449 35.0438 25.665 35.0416C25.7065 35.0175 25.77 34.9735 25.8533 34.9008C26.5189 34.3199 26.5783 33.3471 25.9758 32.6703C25.8231 32.4988 25.635 32.3448 25.406 32.2082C22.9453 30.7405 19.6588 30.4953 16.1859 31.1681C12.7327 31.8371 9.30189 33.3783 6.7372 35.1971C6.03329 35.6963 5.05799 35.5304 4.5588 34.8265C4.05961 34.1225 4.22556 33.1472 4.92947 32.6481C7.84272 30.582 11.6846 28.8571 15.5915 28.1002Z" fill="white"/>
</svg>
