<svg width="100" height="100" viewBox="0 0 100 100" fill="none" xmlns="http://www.w3.org/2000/svg">
<path d="M68.8661 8.33398H31.1342C26.1225 8.33398 23.6166 8.33398 21.6029 9.57856C19.5891 10.8231 18.4684 13.0645 16.2271 17.5471L10.3787 32.331C9.02753 35.7467 7.84529 39.7725 10.1198 42.6568C11.6457 44.5918 14.0111 45.834 16.6667 45.834C21.269 45.834 25 42.103 25 37.5007C25 42.103 28.7309 45.834 33.3333 45.834C37.9357 45.834 41.6667 42.103 41.6667 37.5007C41.6667 42.103 45.3976 45.834 50 45.834C54.6024 45.834 58.3333 42.103 58.3333 37.5007C58.3333 42.103 62.0643 45.834 66.6667 45.834C71.269 45.834 75 42.103 75 37.5007C75 42.103 78.7309 45.834 83.3333 45.834C85.9889 45.834 88.3544 44.5918 89.8804 42.6568C92.155 39.7725 90.9728 35.7467 89.6216 32.331L83.7732 17.5471C81.5319 13.0645 80.4112 10.8231 78.3974 9.57856C76.3837 8.33398 73.8778 8.33398 68.8661 8.33398Z" fill="white"/>
<path fill-rule="evenodd" clip-rule="evenodd" d="M83.3334 88.541H91.6667C93.3926 88.541 94.7917 89.9401 94.7917 91.666C94.7917 93.3919 93.3926 94.791 91.6667 94.791H8.33334C6.60745 94.791 5.20834 93.3919 5.20834 91.666C5.20834 89.9401 6.60745 88.541 8.33334 88.541H16.6667L16.6667 52.0827C19.7651 52.0827 22.6379 51.1164 25 49.4688C27.3622 51.1164 30.2349 52.0827 33.3334 52.0827C36.4318 52.0827 39.3045 51.1164 41.6667 49.4688C44.0288 51.1164 46.9016 52.0827 50 52.0827C53.0985 52.0827 55.9712 51.1164 58.3334 49.4688C60.6955 51.1164 63.5683 52.0827 66.6667 52.0827C69.7651 52.0827 72.6379 51.1164 75 49.4688C77.3622 51.1164 80.2349 52.0827 83.3334 52.0827L83.3334 88.541ZM39.5833 88.541H60.4167V77.0826C60.4167 73.1884 60.4167 71.2413 59.5793 69.791C59.0308 68.8409 58.2418 68.0519 57.2917 67.5033C55.8414 66.666 53.8942 66.666 50 66.666C46.1058 66.666 44.1587 66.666 42.7083 67.5033C41.7582 68.0519 40.9692 68.8409 40.4207 69.791C39.5833 71.2413 39.5833 73.1884 39.5833 77.0826V88.541Z" fill="white"/>
</svg>
