<svg width="85" height="84" viewBox="0 0 85 84" fill="none" xmlns="http://www.w3.org/2000/svg">
<path fill-rule="evenodd" clip-rule="evenodd" d="M59.737 11.7027L67.3605 19.3262C78.5646 30.5303 84.1667 36.1323 84.1667 43.0937C84.1667 50.055 78.5646 55.6571 67.3605 66.8612C56.1564 78.0653 50.5543 83.6673 43.593 83.6673C36.6317 83.6673 31.0296 78.0653 19.8255 66.8612L12.202 59.2377C5.76229 52.798 2.54243 49.5781 1.34433 45.4006C0.146226 41.223 1.17014 36.7861 3.21797 27.9121L4.39891 22.7947C6.12177 15.329 6.98319 11.5962 9.53935 9.04C12.0955 6.48384 15.8284 5.62242 23.294 3.89957L28.4115 2.71862C37.2854 0.670792 41.7224 -0.353122 45.8999 0.844979C50.0774 2.04308 53.2973 5.26294 59.737 11.7027ZM38.9445 51.7025C36.1404 48.8984 36.1642 44.8752 37.8411 41.6867C37.0031 40.4694 37.1254 38.7902 38.2079 37.7076C39.2865 36.629 40.9574 36.5037 42.1737 37.3317C43.5898 36.5792 45.1457 36.1812 46.6961 36.1958C48.4219 36.2121 49.8078 37.6243 49.7915 39.3501C49.7753 41.0759 48.363 42.4618 46.6372 42.4455C45.9001 42.4386 44.9313 42.7694 44.1005 43.6002C42.4857 45.2149 42.9104 46.8296 43.3639 47.2831C43.8174 47.7365 45.432 48.1612 47.0467 46.5465C50.3136 43.2797 55.9539 42.1954 59.5684 45.8099C62.3724 48.6139 62.3487 52.6372 60.6718 55.8257C61.5098 57.043 61.3875 58.7222 60.305 59.8047C59.2261 60.8836 57.5547 61.0087 56.3384 60.1801C54.4348 61.1918 52.269 61.571 50.2043 61.1467C48.5137 60.7993 47.4249 59.1471 47.7723 57.4566C48.1197 55.766 49.7718 54.6772 51.4624 55.0246C52.2005 55.1763 53.3906 54.9341 54.4124 53.9122C56.0272 52.2975 55.6025 50.6828 55.149 50.2293C54.6955 49.7759 53.0809 49.3512 51.4662 50.9659C48.1993 54.2327 42.559 55.317 38.9445 51.7025ZM34.254 34.8887C37.5084 31.6343 37.5084 26.3579 34.254 23.1035C30.9996 19.8492 25.7233 19.8492 22.4689 23.1035C19.2145 26.3579 19.2145 31.6343 22.4689 34.8887C25.7233 38.143 30.9996 38.143 34.254 34.8887Z" fill="white"/>
</svg>
