<svg width="24" height="23" viewBox="0 0 24 23" fill="none" xmlns="http://www.w3.org/2000/svg">
<path fill-rule="evenodd" clip-rule="evenodd" d="M11.8334 1.19788C9.31935 1.19788 7.28131 3.23591 7.28131 5.74996C7.28131 8.264 9.31935 10.302 11.8334 10.302C14.3474 10.302 16.3855 8.264 16.3855 5.74996C16.3855 3.23591 14.3474 1.19788 11.8334 1.19788ZM8.71881 5.74996C8.71881 4.02982 10.1133 2.63538 11.8334 2.63538C13.5535 2.63538 14.948 4.02982 14.948 5.74996C14.948 7.4701 13.5535 8.86454 11.8334 8.86454C10.1133 8.86454 8.71881 7.4701 8.71881 5.74996Z" fill="white"/>
<path fill-rule="evenodd" clip-rule="evenodd" d="M11.8334 11.7395C9.87903 11.7395 8.07435 12.1907 6.73329 12.957C5.41256 13.7117 4.40631 14.8638 4.40631 16.2916C4.40631 17.7194 5.41256 18.8715 6.73329 19.6263C8.07435 20.3926 9.87903 20.8437 11.8334 20.8437C13.7878 20.8437 15.5924 20.3926 16.9335 19.6263C18.2542 18.8715 19.2605 17.7194 19.2605 16.2916C19.2605 14.8638 18.2542 13.7117 16.9335 12.957C15.5924 12.1907 13.7878 11.7395 11.8334 11.7395ZM5.84381 16.2916C5.84381 15.6023 6.33928 14.8378 7.44649 14.2051C8.53336 13.584 10.0828 13.177 11.8334 13.177C13.5839 13.177 15.1334 13.584 16.2203 14.2051C17.3275 14.8378 17.823 15.6023 17.823 16.2916C17.823 16.9809 17.3275 17.7455 16.2203 18.3782C15.1334 18.9992 13.5839 19.4062 11.8334 19.4062C10.0828 19.4062 8.53336 18.9992 7.44649 18.3782C6.33928 17.7455 5.84381 16.9809 5.84381 16.2916Z" fill="white"/>
</svg>
