<svg width="85" height="76" viewBox="0 0 85 76" fill="none" xmlns="http://www.w3.org/2000/svg">
<path d="M70.5 49.5006C71.9583 45.9589 72.75 42.1672 72.75 38.0006C72.75 35.0006 72.2917 32.1256 71.5 29.4589C68.7917 30.0839 65.9584 30.4172 63 30.4172C56.9416 30.4237 50.9703 28.9736 45.5897 26.189C40.2091 23.4044 35.5768 19.367 32.0833 14.4172C28.3462 23.4596 21.2964 30.7331 12.375 34.7506C12.2083 35.7922 12.2083 36.9172 12.2083 38.0006C12.2083 41.9785 12.9919 45.9175 14.5142 49.5927C16.0365 53.2678 18.2677 56.6072 21.0806 59.42C26.7614 65.1008 34.4662 68.2922 42.5 68.2922C46.875 68.2922 51.0833 67.3339 54.875 65.6255C57.25 70.1672 58.3333 72.4172 58.25 72.4172C51.4167 74.7089 46.125 75.8339 42.5 75.8339C32.4167 75.8339 22.7917 71.8756 15.7083 64.7506C11.4 60.4555 8.19739 55.1797 6.37501 49.3756H0.833344V30.4172H5.37501C6.75102 23.7194 9.91456 17.5189 14.53 12.4738C19.1454 7.42877 25.0405 3.72725 31.5897 1.76204C38.139 -0.203159 45.0981 -0.358734 51.7286 1.31183C58.3591 2.98239 64.4138 6.41677 69.25 11.2506C74.5009 16.4808 78.0825 23.151 79.5417 30.4172H84.1667V49.3756H83.9167L69.0833 63.0006L47 60.5006V53.5422H67.125L70.5 49.5006ZM31.125 37.0422C32.375 37.0422 33.5833 37.5422 34.4583 38.4589C35.3377 39.3454 35.8311 40.5435 35.8311 41.7922C35.8311 43.0409 35.3377 44.239 34.4583 45.1256C33.5833 46.0006 32.375 46.5006 31.125 46.5006C28.5 46.5006 26.375 44.4172 26.375 41.7922C26.375 39.1672 28.5 37.0422 31.125 37.0422ZM53.8333 37.0422C56.4583 37.0422 58.5417 39.1672 58.5417 41.7922C58.5417 44.4172 56.4583 46.5006 53.8333 46.5006C51.2083 46.5006 49.0833 44.4172 49.0833 41.7922C49.0833 40.5324 49.5838 39.3243 50.4746 38.4335C51.3654 37.5427 52.5736 37.0422 53.8333 37.0422Z" fill="white"/>
</svg>
