<svg width="76" height="84" viewBox="0 0 76 84" fill="none" xmlns="http://www.w3.org/2000/svg">
<path fill-rule="evenodd" clip-rule="evenodd" d="M2.07298 13.1774C0.5 15.4185 0.5 22.0801 0.5 35.4034V41.9646C0.5 65.4566 18.1623 76.8568 29.244 81.6976C32.2501 83.0108 33.7531 83.6673 38 83.6673C42.2469 83.6673 43.7499 83.0108 46.756 81.6976C57.8377 76.8569 75.5 65.4566 75.5 41.9646V35.4034C75.5 22.0801 75.5 15.4185 73.927 13.1774C72.354 10.9362 66.0903 8.79214 53.5629 4.50396L51.1762 3.68697C44.6459 1.45165 41.3808 0.333984 38 0.333984C34.6192 0.333984 31.3541 1.45165 24.8238 3.68697L22.4371 4.50395C9.90968 8.79214 3.64596 10.9362 2.07298 13.1774ZM50.7477 35.7486C51.8972 34.4612 51.7854 32.4857 50.498 31.3363C49.2106 30.1868 47.2351 30.2986 46.0856 31.586L33.5357 45.6419L29.9144 41.586C28.7649 40.2986 26.7894 40.1868 25.502 41.3363C24.2146 42.4857 24.1028 44.4612 25.2523 45.7486L31.2047 52.4153C31.7976 53.0793 32.6455 53.459 33.5357 53.459C34.4259 53.459 35.2739 53.0793 35.8668 52.4153L50.7477 35.7486Z" fill="white"/>
</svg>
