<svg width="17" height="16" viewBox="0 0 17 16" fill="none" xmlns="http://www.w3.org/2000/svg">
<path d="M11.5803 13.2968C13.9209 11.4934 16.6699 9.37517 16.6699 5.70323C16.6699 1.64962 12.0855 -1.22511 8.33492 2.67197L6.66792 4.33799C6.42375 4.58209 6.02794 4.58202 5.78386 4.33783C5.53978 4.09363 5.53985 3.69779 5.78402 3.45369L7.39435 1.84381C3.86031 -0.743624 -7.82013e-05 1.98345 -7.82013e-05 5.70323C-7.82013e-05 9.37517 2.74896 11.4934 5.0895 13.2968C5.33277 13.4843 5.57163 13.6683 5.80253 13.8504C6.66792 14.5326 7.50142 15.175 8.33492 15.175C9.16842 15.175 10.0019 14.5326 10.8673 13.8504C11.0982 13.6683 11.3371 13.4843 11.5803 13.2968Z" fill="#D4463B"/>
</svg>
