<svg width="33" height="27" viewBox="0 0 33 27" fill="none" xmlns="http://www.w3.org/2000/svg">
<path d="M29.7 0H3.3C1.485 0 0.0165 1.51875 0.0165 3.375L0 23.625C0 25.4813 1.485 27 3.3 27H29.7C31.515 27 33 25.4813 33 23.625V3.375C33 1.51875 31.515 0 29.7 0ZM29.04 7.17188L17.3745 14.6306C16.8465 14.9681 16.1535 14.9681 15.6255 14.6306L3.96 7.17188C3.79455 7.07689 3.64967 6.94855 3.53412 6.79464C3.41857 6.64073 3.33475 6.46444 3.28775 6.27644C3.24075 6.08844 3.23153 5.89264 3.26066 5.70089C3.28979 5.50915 3.35665 5.32544 3.45721 5.16088C3.55777 4.99633 3.68993 4.85436 3.8457 4.74355C4.00146 4.63275 4.17759 4.55543 4.36342 4.51625C4.54925 4.47708 4.74092 4.47688 4.92683 4.51566C5.11273 4.55444 5.28901 4.6314 5.445 4.74187L16.5 11.8125L27.555 4.74187C27.711 4.6314 27.8873 4.55444 28.0732 4.51566C28.2591 4.47688 28.4508 4.47708 28.6366 4.51625C28.8224 4.55543 28.9985 4.63275 29.1543 4.74355C29.3101 4.85436 29.4422 4.99633 29.5428 5.16088C29.6433 5.32544 29.7102 5.50915 29.7393 5.70089C29.7685 5.89264 29.7593 6.08844 29.7123 6.27644C29.6652 6.46444 29.5814 6.64073 29.4659 6.79464C29.3503 6.94855 29.2054 7.07689 29.04 7.17188V7.17188Z" fill="#637381"/>
</svg>
