<svg width="30" height="30" viewBox="0 0 30 30" fill="none" xmlns="http://www.w3.org/2000/svg">
<path d="M15 6.05415C10.1317 6.05415 6.17411 9.99468 6.16741 14.842C6.16741 16.5022 6.63616 18.1224 7.52009 19.516L7.72768 19.8493L6.83705 23.0898L10.1786 22.2163L10.5 22.4097C11.8527 23.2098 13.4062 23.6365 14.9933 23.6365H15C19.8616 23.6365 23.9263 19.696 23.9263 14.8487C23.9263 12.5017 22.9085 10.2947 21.2411 8.6345C19.567 6.96761 17.3571 6.05415 15 6.05415ZM20.1897 18.6158C19.9688 19.2359 18.9107 19.796 18.4018 19.8693C17.558 19.996 16.9018 19.9294 15.221 19.2093C12.5625 18.0624 10.8214 15.3954 10.6875 15.222C10.5536 15.0487 9.60268 13.7885 9.60268 12.4883C9.60268 11.1882 10.2857 10.5481 10.5335 10.2814C10.7746 10.0147 11.0625 9.94801 11.2433 9.94801C11.4174 9.94801 11.5982 9.94801 11.7522 9.95467C11.9129 9.96134 12.1339 9.89467 12.3482 10.4081C12.5692 10.9348 13.0982 12.235 13.1652 12.3683C13.2321 12.5017 13.279 12.655 13.1853 12.8284C12.6763 13.8419 12.1339 13.8019 12.4085 14.2686C13.433 16.0222 14.4576 16.6289 16.0179 17.409C16.2857 17.5424 16.4397 17.5224 16.5938 17.3423C16.7478 17.169 17.2567 16.5689 17.4308 16.3089C17.6049 16.0422 17.7857 16.0888 18.0268 16.1755C18.2679 16.2622 19.5737 16.9023 19.8415 17.0356C20.1094 17.169 20.2835 17.2357 20.3504 17.3423C20.4107 17.469 20.4107 18.0024 20.1897 18.6158ZM26.7857 0H3.21429C1.43973 0 0 1.43353 0 3.20043V26.6703C0 28.4372 1.43973 29.8707 3.21429 29.8707H26.7857C28.5603 29.8707 30 28.4372 30 26.6703V3.20043C30 1.43353 28.5603 0 26.7857 0ZM14.9933 25.4168C13.2121 25.4168 11.4643 24.97 9.91741 24.1299L4.28571 25.6034L5.79241 20.1227C4.86161 18.5225 4.37277 16.7022 4.37277 14.8353C4.37946 9.00788 9.14062 4.26724 14.9933 4.26724C17.8326 4.26724 20.4978 5.36739 22.5067 7.36766C24.5089 9.36793 25.7143 12.0216 25.7143 14.8487C25.7143 20.6761 20.846 25.4168 14.9933 25.4168Z" fill="#3CD539"/>
</svg>
