<svg width="78" height="87" viewBox="0 0 78 87" fill="none" xmlns="http://www.w3.org/2000/svg">
<path fill-rule="evenodd" clip-rule="evenodd" d="M23.3756 20.0627C23.3752 20.0421 23.375 20.0214 23.375 20.0007V15.834C23.375 7.20454 30.3706 0.208984 39 0.208984C47.6294 0.208984 54.625 7.20454 54.625 15.834V20.0007C54.625 20.0214 54.6248 20.0421 54.6244 20.0627C59.9879 20.2237 63.2698 20.8023 65.7755 22.8818C69.247 25.7629 70.1614 30.6398 71.9902 40.3934L75.1152 57.0601C77.6869 70.7755 78.9727 77.6332 75.2239 82.1503C71.4751 86.6673 64.4979 86.6673 50.5434 86.6673H27.4564C13.502 86.6673 6.5248 86.6673 2.77598 82.1503C-0.972839 77.6332 0.312979 70.7755 2.88462 57.0601L6.00962 40.3935C7.83843 30.6398 8.75284 25.7629 12.2244 22.8818C14.73 20.8023 18.012 20.2237 23.3756 20.0627ZM29.625 15.834C29.625 10.6563 33.8223 6.45898 39 6.45898C44.1777 6.45898 48.375 10.6563 48.375 15.834V20.0007C48.375 20.0007 48.375 20.0006 48.375 20.0007C48.0614 20.0006 47.7425 20.0007 47.4184 20.0007H30.5814C30.2574 20.0007 29.9386 20.0007 29.625 20.0008C29.625 20.0007 29.625 20.0008 29.625 20.0008V15.834ZM53.4521 40.4772C54.7998 41.5554 55.0183 43.5219 53.9401 44.8696L37.2735 65.7029C36.7182 66.397 35.8936 66.8218 35.0061 66.871C34.1186 66.9201 33.2521 66.589 32.6236 65.9605L24.2902 57.6271C23.0698 56.4068 23.0698 54.4281 24.2902 53.2077C25.5106 51.9873 27.4893 51.9873 28.7096 53.2077L34.5728 59.0709L49.0597 40.9653C50.1379 39.6176 52.1044 39.3991 53.4521 40.4772Z" fill="#0F51FA"/>
</svg>
