<svg width="84" height="60" viewBox="0 0 84 60" fill="none" xmlns="http://www.w3.org/2000/svg">
<path d="M64.5 54.375C63.0082 54.375 61.5774 53.7824 60.5225 52.7275C59.4676 51.6726 58.875 50.2418 58.875 48.75C58.875 47.2582 59.4676 45.8274 60.5225 44.7725C61.5774 43.7176 63.0082 43.125 64.5 43.125C65.9918 43.125 67.4226 43.7176 68.4775 44.7725C69.5324 45.8274 70.125 47.2582 70.125 48.75C70.125 50.2418 69.5324 51.6726 68.4775 52.7275C67.4226 53.7824 65.9918 54.375 64.5 54.375ZM70.125 20.625L77.475 30H60.75V20.625M19.5 54.375C18.0082 54.375 16.5774 53.7824 15.5225 52.7275C14.4676 51.6726 13.875 50.2418 13.875 48.75C13.875 47.2582 14.4676 45.8274 15.5225 44.7725C16.5774 43.7176 18.0082 43.125 19.5 43.125C20.9918 43.125 22.4226 43.7176 23.4775 44.7725C24.5324 45.8274 25.125 47.2582 25.125 48.75C25.125 50.2418 24.5324 51.6726 23.4775 52.7275C22.4226 53.7824 20.9918 54.375 19.5 54.375ZM72 15H60.75V0H8.25C4.0875 0 0.75 3.3375 0.75 7.5V48.75H8.25C8.25 51.7337 9.43526 54.5952 11.545 56.705C13.6548 58.8147 16.5163 60 19.5 60C22.4837 60 25.3452 58.8147 27.455 56.705C29.5647 54.5952 30.75 51.7337 30.75 48.75H53.25C53.25 51.7337 54.4353 54.5952 56.545 56.705C58.6548 58.8147 61.5163 60 64.5 60C67.4837 60 70.3452 58.8147 72.455 56.705C74.5647 54.5952 75.75 51.7337 75.75 48.75H83.25V30L72 15Z" fill="#0F51FA"/>
</svg>
