<svg width="99" height="68" viewBox="0 0 99 68" fill="none" xmlns="http://www.w3.org/2000/svg">
<path d="M11.5 40.2513L8.375 34.0013H30.25L27.75 27.7513H7.33334L4.20834 21.5013H36.7083L34.2083 15.2513H3.62501L0.0416718 9.0013H15.6667C15.6667 6.79116 16.5446 4.67155 18.1074 3.10875C19.6702 1.54594 21.7899 0.667969 24 0.667969H74V17.3346H86.5L99 34.0013V54.8346H90.6667C90.6667 58.1498 89.3497 61.3293 87.0055 63.6735C84.6613 66.0177 81.4819 67.3346 78.1667 67.3346C74.8515 67.3346 71.672 66.0177 69.3278 63.6735C66.9836 61.3293 65.6667 58.1498 65.6667 54.8346H49C49 58.1498 47.683 61.3293 45.3388 63.6735C42.9946 66.0177 39.8152 67.3346 36.5 67.3346C33.1848 67.3346 30.0054 66.0177 27.6612 63.6735C25.317 61.3293 24 58.1498 24 54.8346H15.6667V40.2513H11.5ZM78.1667 61.0846C79.8243 61.0846 81.414 60.4262 82.5861 59.2541C83.7582 58.082 84.4167 56.4922 84.4167 54.8346C84.4167 53.177 83.7582 51.5873 82.5861 50.4152C81.414 49.2431 79.8243 48.5846 78.1667 48.5846C76.5091 48.5846 74.9194 49.2431 73.7473 50.4152C72.5751 51.5873 71.9167 53.177 71.9167 54.8346C71.9167 56.4922 72.5751 58.082 73.7473 59.2541C74.9194 60.4262 76.5091 61.0846 78.1667 61.0846ZM84.4167 23.5846H74V34.0013H92.5833L84.4167 23.5846ZM36.5 61.0846C38.1576 61.0846 39.7473 60.4262 40.9194 59.2541C42.0915 58.082 42.75 56.4922 42.75 54.8346C42.75 53.177 42.0915 51.5873 40.9194 50.4152C39.7473 49.2431 38.1576 48.5846 36.5 48.5846C34.8424 48.5846 33.2527 49.2431 32.0806 50.4152C30.9085 51.5873 30.25 53.177 30.25 54.8346C30.25 56.4922 30.9085 58.082 32.0806 59.2541C33.2527 60.4262 34.8424 61.0846 36.5 61.0846Z" fill="#0F51FA"/>
</svg>
