<svg width="76" height="79" viewBox="0 0 76 79" fill="none" xmlns="http://www.w3.org/2000/svg">
<path fill-rule="evenodd" clip-rule="evenodd" d="M29.6657 0.375C26.7557 0.375 24.2438 2.07966 23.0742 4.54488C20.2261 4.56558 18.0063 4.69632 16.0249 5.47075C13.6574 6.39603 11.5982 7.96895 10.0827 10.0096C8.55384 12.0683 7.83614 14.707 6.84832 18.3389L6.65503 19.0487L4.51866 31.3947C3.7456 31.928 3.07419 32.5595 2.49029 33.3073C-1.26318 38.1147 0.524214 45.2643 4.099 59.5634C6.37262 68.6579 7.50943 73.2051 10.9002 75.8526C14.291 78.5 18.9782 78.5 28.3526 78.5H47.6471C57.0215 78.5 61.7087 78.5 65.0994 75.8526C68.4902 73.2051 69.627 68.6579 71.9006 59.5634C75.4754 45.2643 77.2628 38.1147 73.5093 33.3073C72.925 32.5589 72.253 31.927 71.4791 31.3934L69.343 19.0487L69.1497 18.3389C68.1618 14.707 67.4442 12.0683 65.9153 10.0096C64.3998 7.96895 62.3406 6.39603 59.9731 5.47075C57.9917 4.69632 55.7719 4.56558 52.9238 4.54488C51.7542 2.07966 49.2423 0.375 46.3323 0.375H29.6657ZM64.7406 29.1071L63.2351 20.4069C62.0527 16.0747 61.6235 14.7134 60.8976 13.7359C60.0816 12.6371 58.9728 11.7902 57.698 11.2919C56.7822 10.934 55.6756 10.8287 52.918 10.8008C51.7458 13.2594 49.2375 14.9583 46.3323 14.9583H29.6657C26.7605 14.9583 24.2522 13.2594 23.08 10.8008C20.3224 10.8287 19.2158 10.934 18.3 11.2919C17.0252 11.7902 15.9164 12.6371 15.1004 13.7359C14.3745 14.7134 13.9453 16.0747 12.7629 20.4069L11.2573 29.1074C15.4163 28.5 20.9567 28.5 28.3526 28.5H47.6471C55.042 28.5 60.5818 28.5 64.7406 29.1071ZM21.3333 42.0417C23.0592 42.0417 24.4583 43.4408 24.4583 45.1667V61.8333C24.4583 63.5592 23.0592 64.9583 21.3333 64.9583C19.6074 64.9583 18.2083 63.5592 18.2083 61.8333V45.1667C18.2083 43.4408 19.6074 42.0417 21.3333 42.0417ZM57.7917 45.1667C57.7917 43.4408 56.3926 42.0417 54.6667 42.0417C52.9408 42.0417 51.5417 43.4408 51.5417 45.1667V61.8333C51.5417 63.5592 52.9408 64.9583 54.6667 64.9583C56.3926 64.9583 57.7917 63.5592 57.7917 61.8333V45.1667ZM38 42.0417C39.7259 42.0417 41.125 43.4408 41.125 45.1667V61.8333C41.125 63.5592 39.7259 64.9583 38 64.9583C36.2741 64.9583 34.875 63.5592 34.875 61.8333V45.1667C34.875 43.4408 36.2741 42.0417 38 42.0417Z" fill="#0F51FA"/>
</svg>
