<svg width="24" height="21" viewBox="0 0 24 21" fill="none" xmlns="http://www.w3.org/2000/svg">
<path d="M17.4687 5.29166C17.4687 4.86019 17.119 4.51041 16.6875 4.51041C16.256 4.51041 15.9062 4.86019 15.9062 5.29166V6.59376H14.6041C14.1727 6.59376 13.8229 6.94354 13.8229 7.37501C13.8229 7.80648 14.1727 8.15626 14.6041 8.15626L15.9062 8.15626V9.45832C15.9062 9.8898 16.256 10.2396 16.6875 10.2396C17.119 10.2396 17.4687 9.8898 17.4687 9.45832V8.15626H18.7708C19.2023 8.15626 19.5521 7.80648 19.5521 7.37501C19.5521 6.94354 19.2023 6.59376 18.7708 6.59376H17.4687V5.29166Z" fill="#0F51FA"/>
<path fill-rule="evenodd" clip-rule="evenodd" d="M23.1979 7.70569C23.1979 4.24174 21.6537 1.65589 19.2509 0.715039C17.0262 -0.156068 14.3561 0.495686 12 2.70122C9.64388 0.495686 6.97372 -0.156068 4.74904 0.715044C2.34625 1.6559 0.802063 4.24176 0.802063 7.70572C0.802063 9.91185 1.97957 12.0829 3.44507 13.952C4.92564 15.8403 6.78822 17.5312 8.34283 18.7927L8.48255 18.9062C9.73317 19.9225 10.636 20.6562 12 20.6562C13.364 20.6562 14.2668 19.9226 15.5174 18.9062L15.6571 18.7927C17.2117 17.5312 19.0743 15.8404 20.5549 13.952C22.0204 12.0829 23.1979 9.91186 23.1979 7.70569ZM12.5706 4.33994C14.7704 1.98726 17.0511 1.53168 18.6812 2.16998C20.3149 2.80968 21.6354 4.68007 21.6354 7.70569C21.6354 9.38425 20.7195 11.2098 19.3253 12.9879C17.9462 14.7469 16.1829 16.3539 14.6726 17.5795C13.222 18.7566 12.753 19.0937 12 19.0937C11.247 19.0937 10.778 18.7566 9.3274 17.5794C7.81711 16.3538 6.05379 14.7468 4.67468 12.9879C3.28051 11.2098 2.36456 9.38424 2.36456 7.70572C2.36456 4.68008 3.68505 2.80969 5.31875 2.16998C6.94886 1.53168 9.22955 1.98726 11.4293 4.33994C11.5771 4.49794 11.7837 4.58762 12 4.58762C12.2163 4.58762 12.4229 4.49794 12.5706 4.33994Z" fill="#0F51FA"/>
</svg>
