<svg width="21" height="20" viewBox="0 0 21 20" fill="none" xmlns="http://www.w3.org/2000/svg">
<path fill-rule="evenodd" clip-rule="evenodd" d="M4.58462 1.875C4.59763 1.875 4.61068 1.875 4.62378 1.875L16.3296 1.875C16.8854 1.87498 17.3605 1.87495 17.7403 1.92285C18.143 1.97365 18.5323 2.08775 18.852 2.3877C19.1773 2.69295 19.3066 3.0738 19.3634 3.47004C19.4155 3.83404 19.4155 4.28664 19.4155 4.80299L19.4155 5.4501C19.4155 5.85719 19.4155 6.20912 19.3851 6.50259C19.3524 6.81839 19.2809 7.11466 19.1092 7.39911C18.9389 7.68142 18.7094 7.88633 18.445 8.07003C18.1958 8.24308 17.8776 8.42225 17.5032 8.63296L15.0512 10.0133C14.493 10.3275 14.2987 10.4406 14.1689 10.5533C13.8709 10.812 13.7003 11.099 13.6201 11.4587C13.5858 11.6124 13.5821 11.806 13.5821 12.3941L13.5821 14.6708C13.5822 15.4219 13.5822 16.0595 13.5049 16.5496C13.4227 17.0709 13.2319 17.5708 12.7319 17.8835C12.2433 18.1892 11.705 18.1611 11.1819 18.0369C10.6782 17.9172 10.0573 17.6745 9.31241 17.3833L9.24001 17.355C8.89108 17.2186 8.58554 17.0991 8.34365 16.9743C8.08369 16.84 7.84228 16.673 7.65758 16.4131C7.47079 16.1502 7.39591 15.8684 7.36251 15.5803C7.33206 15.3175 7.33209 15.0022 7.33212 14.6505L7.33212 12.3941C7.33212 11.806 7.32841 11.6124 7.29413 11.4587C7.21394 11.099 7.0433 10.812 6.74531 10.5533C6.61556 10.4406 6.42121 10.3275 5.86306 10.0133L3.41103 8.63296C3.03669 8.42225 2.71839 8.24308 2.46927 8.07003C2.20482 7.88633 1.97537 7.68142 1.80501 7.39911C1.63335 7.11466 1.56187 6.81839 1.52915 6.50259C1.49875 6.20912 1.49876 5.85719 1.49878 5.4501L1.49878 4.84555C1.49878 4.83131 1.49878 4.81712 1.49878 4.80297C1.49874 4.28663 1.49871 3.83403 1.55087 3.47004C1.60765 3.0738 1.73691 2.69295 2.06226 2.3877C2.38197 2.08775 2.77124 1.97365 3.17398 1.92285C3.55372 1.87495 4.02883 1.87498 4.58462 1.875ZM3.33041 3.16303C3.05236 3.1981 2.96395 3.25576 2.91754 3.2993C2.87677 3.33755 2.82298 3.40487 2.78823 3.64736C2.75029 3.91212 2.74878 4.2739 2.74878 4.84555V5.4204C2.74878 5.86558 2.74955 6.15231 2.7725 6.37379C2.79387 6.58005 2.83055 6.67923 2.87523 6.75326C2.9212 6.82943 2.99753 6.915 3.18239 7.04341C3.37716 7.1787 3.64324 7.32923 4.04872 7.55749L6.47625 8.92402C6.49898 8.93682 6.52136 8.94941 6.54342 8.96182C7.00901 9.22376 7.3261 9.40215 7.56478 9.60936C8.05758 10.0372 8.37375 10.5568 8.51417 11.1866C8.58242 11.4927 8.5823 11.8359 8.58213 12.3204C8.58212 12.3446 8.58212 12.3692 8.58212 12.3941V14.6187C8.58212 15.0121 8.58309 15.2542 8.6042 15.4364C8.6233 15.6011 8.65338 15.6565 8.67653 15.6891C8.70177 15.7246 8.75175 15.7782 8.91714 15.8636C9.09415 15.955 9.33802 16.0512 9.72314 16.2017C10.524 16.5148 11.0626 16.7238 11.4708 16.8207C11.8696 16.9154 12.0011 16.8663 12.0691 16.8238C12.1257 16.7884 12.2132 16.7164 12.2702 16.355C12.3303 15.9738 12.3321 15.4362 12.3321 14.6187V12.3941C12.3321 12.3692 12.3321 12.3446 12.3321 12.3204C12.3319 11.8359 12.3318 11.4927 12.4001 11.1866C12.5405 10.5568 12.8567 10.0372 13.3495 9.60936C13.5881 9.40215 13.9052 9.22376 14.3708 8.96184C14.3928 8.94942 14.4152 8.93682 14.438 8.92402L16.8655 7.55749C17.271 7.32923 17.5371 7.1787 17.7318 7.04341C17.9167 6.915 17.993 6.82943 18.039 6.75326C18.0837 6.67923 18.1204 6.58005 18.1417 6.37379C18.1647 6.15231 18.1655 5.86558 18.1655 5.4204V4.84555C18.1655 4.2739 18.1639 3.91212 18.126 3.64736C18.0913 3.40487 18.0375 3.33755 17.9967 3.2993C17.9503 3.25576 17.8619 3.1981 17.5838 3.16303C17.2917 3.12617 16.8963 3.125 16.2905 3.125H4.62378C4.01792 3.125 3.62257 3.12617 3.33041 3.16303Z" fill="#0F51FA"/>
</svg>
