<svg width="82" height="82" viewBox="0 0 82 82" fill="none" xmlns="http://www.w3.org/2000/svg">
<path fill-rule="evenodd" clip-rule="evenodd" d="M41 6.87684C40.554 7.5387 40.0044 8.51438 39.1863 9.98198L38.6948 10.8638C38.6583 10.9292 38.6206 10.9977 38.5817 11.0685C38.1745 11.8084 37.6214 12.8135 36.708 13.5069C35.7777 14.213 34.6559 14.46 33.8539 14.6365C33.7777 14.6533 33.7044 14.6694 33.6345 14.6852L32.68 14.9012C30.9356 15.2959 29.8484 15.5485 29.118 15.8039C29.5696 16.4825 30.3278 17.3788 31.5576 18.817L32.2084 19.5779C32.2562 19.6339 32.3061 19.6917 32.3576 19.7513C32.9117 20.3927 33.6488 21.2459 33.9894 22.3414C34.3266 23.4255 34.2124 24.5472 34.1252 25.4046C34.1171 25.4846 34.1091 25.5624 34.1019 25.6376L34.0035 26.6529C33.8277 28.4665 33.7194 29.6398 33.7225 30.4697C34.4433 30.2142 35.4306 29.7658 36.9372 29.072L37.831 28.6605C37.8967 28.6303 37.9656 28.5981 38.0373 28.5645C38.7792 28.2173 39.8317 27.7248 41 27.7248C42.1683 27.7248 43.2208 28.2173 43.9627 28.5645C44.0344 28.5981 44.1033 28.6303 44.169 28.6605L45.0628 29.0721C46.5694 29.7658 47.5567 30.2142 48.2775 30.4697C48.2806 29.6398 48.1723 28.4665 47.9965 26.6529L47.8981 25.6376C47.8908 25.5624 47.8829 25.4846 47.8748 25.4046C47.7876 24.5472 47.6734 23.4256 48.0106 22.3414C48.3512 21.2459 49.0883 20.3926 49.6424 19.7513C49.6939 19.6917 49.7438 19.6339 49.7916 19.5779L50.4424 18.817C51.6722 17.3788 52.4304 16.4825 52.882 15.8039C52.1516 15.5485 51.0644 15.2959 49.32 14.9012L48.3655 14.6852C48.2955 14.6694 48.2223 14.6533 48.1461 14.6365C47.3441 14.46 46.2222 14.213 45.292 13.5069C44.3786 12.8134 43.8255 11.8084 43.4183 11.0685C43.3793 10.9976 43.3417 10.9292 43.3052 10.8638L42.8137 9.98197C41.9956 8.51438 41.446 7.5387 41 6.87684ZM49.0735 30.6883C49.0777 30.6884 49.0799 30.6885 49.08 30.6886ZM32.92 30.6886C32.92 30.6885 32.9223 30.6884 32.9265 30.6883ZM36.8118 3.06815C37.6206 2.01205 38.9411 0.6875 41 0.6875C43.0589 0.6875 44.3794 2.01204 45.1882 3.06815C45.967 4.08513 46.7642 5.51567 47.6312 7.07148C47.663 7.12854 47.6949 7.18577 47.7268 7.24315L48.2184 8.12494C48.3564 8.37251 48.4632 8.56388 48.5579 8.72793C48.6216 8.83819 48.6716 8.92148 48.7118 8.98574C48.7749 9.00317 48.8547 9.02384 48.957 9.04876C49.1332 9.09168 49.3383 9.13815 49.6068 9.19891L50.5614 9.41488C50.6264 9.42961 50.6914 9.44429 50.7562 9.45894C52.432 9.83783 53.9963 10.1915 55.1774 10.657C56.4573 11.1613 58.0037 12.0704 58.5995 13.9864C59.1858 15.8718 58.464 17.4995 57.7348 18.6579C57.0498 19.7461 55.9922 20.9824 54.8433 22.3255L54.0666 23.2337C53.8838 23.4475 53.743 23.6123 53.6233 23.7567C53.5252 23.8752 53.4574 23.9607 53.4089 24.0253C53.4152 24.2341 53.442 24.5282 53.4969 25.0951L53.6138 26.3013C53.7882 28.0984 53.9473 29.7387 53.8898 31.0306C53.83 32.3728 53.5133 34.1693 51.9178 35.3805C50.2764 36.6265 48.4425 36.3835 47.1417 36.0108C45.9243 35.662 44.4617 34.9882 42.8933 34.2658C42.8324 34.2378 42.7714 34.2096 42.7102 34.1815L41.8165 33.77C41.5651 33.6542 41.3728 33.5657 41.2057 33.4921C41.1234 33.4558 41.0559 33.427 41 33.4039C40.9441 33.427 40.8766 33.4558 40.7943 33.4921C40.6272 33.5657 40.4349 33.6542 40.1835 33.77L39.2898 34.1815C39.2286 34.2096 39.1676 34.2377 39.1067 34.2658C37.5383 34.9882 36.0756 35.662 34.8583 36.0108C33.5575 36.3835 31.7236 36.6265 30.0822 35.3805C28.4866 34.1693 28.17 32.3728 28.1102 31.0306C28.0526 29.7388 28.2118 28.0985 28.3862 26.3014C28.3923 26.2379 28.3985 26.1742 28.4047 26.1103L28.5031 25.0951C28.558 24.5282 28.5848 24.2341 28.5911 24.0253C28.5426 23.9607 28.4748 23.8752 28.3767 23.7567C28.257 23.6123 28.1162 23.4475 27.9334 23.2337L27.2826 22.4728C27.2405 22.4235 27.1985 22.3744 27.1566 22.3254C26.0078 20.9824 24.9502 19.7461 24.2652 18.6579C23.536 17.4995 22.8142 15.8718 23.4005 13.9864C23.9963 12.0704 25.5427 11.1613 26.8225 10.657C28.0037 10.1915 29.5679 9.83783 31.2438 9.45894C31.3086 9.4443 31.3735 9.42961 31.4386 9.41488L32.3932 9.19891C32.6617 9.13815 32.8667 9.09168 33.043 9.04876C33.1453 9.02384 33.2251 9.00318 33.2882 8.98576C33.3284 8.92149 33.3783 8.8382 33.442 8.72793C33.5368 8.56388 33.6436 8.37251 33.7816 8.12494L34.2731 7.24315C34.3051 7.18577 34.337 7.12854 34.3688 7.07148C35.2358 5.51567 36.033 4.08513 36.8118 3.06815ZM11 26.7561C11.1956 27.1173 11.6121 27.8545 12.2957 28.3735C13.0304 28.9312 13.9122 29.1169 14.2786 29.194C14.3153 29.2018 14.3467 29.2084 14.3724 29.2142L14.4496 29.2317L14.3271 29.375C14.3082 29.397 14.2855 29.4229 14.2596 29.4524C14.0024 29.7454 13.4277 30.4003 13.1625 31.2531C12.9009 32.0943 12.9952 32.9556 13.0382 33.3492C13.0426 33.3893 13.0465 33.4246 13.0494 33.4544L13.0534 33.4962C12.6998 33.3269 11.898 32.9561 11 32.9561C10.102 32.9561 9.30022 33.3269 8.94658 33.4962L8.95062 33.4544C8.95352 33.4246 8.95737 33.3893 8.96176 33.3492C9.00483 32.9556 9.0991 32.0943 8.83753 31.2531C8.57233 30.4003 7.99754 29.7454 7.7404 29.4524C7.71447 29.4229 7.69176 29.397 7.67293 29.375L7.55036 29.2317L7.62757 29.2142C7.65324 29.2084 7.68473 29.2018 7.72136 29.194C8.0878 29.1169 8.96961 28.9312 9.70427 28.3735C10.3879 27.8545 10.8044 27.1173 11 26.7561ZM7.00691 26.471L6.47483 24.1194ZM8.7725 35.8713C8.77329 35.8769 8.77357 35.8798 8.77351 35.8799ZM13.2265 35.8799C13.2264 35.8798 13.2267 35.8769 13.2275 35.8713ZM7.78942 21.1791C8.27191 20.549 9.29616 19.4375 11 19.4375C12.7038 19.4375 13.7281 20.549 14.2106 21.1791C14.6646 21.772 15.1096 22.571 15.5189 23.3062C15.5433 23.35 15.5676 23.3936 15.5917 23.4369L15.7742 23.7642L16.091 23.8359C16.1393 23.8468 16.1879 23.8578 16.237 23.8688C17.0278 24.0473 17.9092 24.2462 18.6043 24.5202C19.3955 24.832 20.6565 25.5124 21.1426 27.0756C21.6192 28.6082 20.9997 29.8757 20.5575 30.5781C20.1581 31.2126 19.5666 31.9036 19.0234 32.5382C18.9912 32.5758 18.9592 32.6132 18.9274 32.6504L18.6538 32.9703L18.6973 33.4195C18.702 33.4682 18.7068 33.5171 18.7116 33.5662C18.7943 34.4163 18.8831 35.3287 18.8498 36.0779C18.8142 36.8751 18.6174 38.3172 17.3092 39.3103C15.955 40.3383 14.4807 40.0857 13.6835 39.8573C12.9671 39.652 12.1438 39.2724 11.4041 38.9313C11.3581 38.9101 11.3123 38.889 11.267 38.8681L11 38.7452L10.733 38.8681C10.6877 38.889 10.6419 38.9101 10.5959 38.9313C9.85618 39.2724 9.03288 39.652 8.31647 39.8573C7.51933 40.0857 6.04495 40.3383 4.69079 39.3103C3.38254 38.3172 3.18575 36.8751 3.15024 36.0779C3.11686 35.3287 3.20567 34.4163 3.2884 33.5662C3.29318 33.5171 3.29794 33.4682 3.30265 33.4195L3.34619 32.9703L3.07257 32.6504C3.04079 32.6132 3.00879 32.5758 2.97662 32.5382C2.43341 31.9036 1.84192 31.2126 1.44251 30.5781C1.0003 29.8757 0.380837 28.6082 0.857419 27.0756C1.34354 25.5124 2.60445 24.832 3.39568 24.5202C4.09081 24.2462 4.97218 24.0473 5.76303 23.8688C5.81205 23.8578 5.86072 23.8468 5.90898 23.8359L6.22582 23.7642L6.40827 23.4369C6.43239 23.3936 6.45664 23.35 6.48102 23.3063C6.89041 22.5711 7.33536 21.772 7.78942 21.1791ZM71 26.7561C71.1956 27.1173 71.6121 27.8545 72.2957 28.3735C73.0304 28.9312 73.9122 29.1169 74.2786 29.194C74.3153 29.2018 74.3467 29.2084 74.3724 29.2142L74.4496 29.2317L74.3271 29.375C74.3082 29.397 74.2855 29.4229 74.2596 29.4524C74.0024 29.7454 73.4276 30.4003 73.1625 31.2531C72.9009 32.0942 72.9952 32.9556 73.0382 33.3492C73.0426 33.3893 73.0465 33.4245 73.0494 33.4544L73.0534 33.4962C72.6998 33.3269 71.898 32.9561 71 32.9561C70.102 32.9561 69.3002 33.3269 68.9466 33.4962L68.9506 33.4544C68.9535 33.4246 68.9574 33.3893 68.9618 33.3492C69.0048 32.9556 69.0991 32.0942 68.8375 31.2531C68.5723 30.4003 67.9975 29.7454 67.7404 29.4524C67.7145 29.4229 67.6918 29.397 67.6729 29.375L67.5504 29.2317L67.6276 29.2142C67.6532 29.2084 67.6847 29.2018 67.7214 29.194C68.0878 29.1169 68.9696 28.9312 69.7043 28.3735C70.3879 27.8545 70.8044 27.1173 71 26.7561ZM68.7725 35.8713C68.7734 35.8773 68.7736 35.8803 68.7735 35.8799ZM67.7894 21.1791C68.2719 20.549 69.2962 19.4375 71 19.4375C72.7038 19.4375 73.7281 20.549 74.2106 21.1791C74.6646 21.772 75.1096 22.571 75.5189 23.3062C75.5433 23.35 75.5676 23.3936 75.5917 23.4369L75.7742 23.7642L76.091 23.8359C76.1393 23.8468 76.188 23.8578 76.237 23.8688C77.0278 24.0473 77.9092 24.2462 78.6043 24.5202C79.3955 24.832 80.6565 25.5124 81.1426 27.0756C81.6192 28.6082 80.9997 29.8756 80.5575 30.5781C80.1581 31.2126 79.5665 31.9036 79.0233 32.5383C78.9912 32.5758 78.9592 32.6132 78.9274 32.6504L78.6538 32.9703L78.6973 33.4195C78.702 33.4682 78.7068 33.5171 78.7116 33.5662C78.7943 34.4163 78.8831 35.3287 78.8497 36.0779C78.8142 36.8751 78.6174 38.3172 77.3092 39.3103C75.955 40.3383 74.4807 40.0857 73.6835 39.8573C72.9671 39.652 72.1439 39.2724 71.4042 38.9313C71.3581 38.9101 71.3124 38.889 71.267 38.8681L71 38.7452L70.733 38.8681C70.6877 38.889 70.642 38.91 70.5959 38.9313C69.8562 39.2723 69.0329 39.652 68.3165 39.8573C67.5193 40.0857 66.045 40.3383 64.6908 39.3103C63.3825 38.3172 63.1857 36.8751 63.1502 36.0779C63.1169 35.3287 63.2057 34.4163 63.2884 33.5662C63.2932 33.5171 63.2979 33.4682 63.3027 33.4195L63.3462 32.9703L63.0726 32.6504C63.0408 32.6132 63.0088 32.5758 62.9766 32.5382C62.4334 31.9036 61.8419 31.2126 61.4425 30.5781C61.0003 29.8757 60.3808 28.6082 60.8574 27.0756C61.3435 25.5124 62.6044 24.832 63.3957 24.5202C64.0908 24.2462 64.9722 24.0473 65.763 23.8688C65.812 23.8578 65.8607 23.8468 65.909 23.8359L66.2258 23.7642L66.4083 23.4369C66.4324 23.3936 66.4567 23.35 66.481 23.3062C66.8904 22.5711 67.3354 21.772 67.7894 21.1791ZM73.2265 35.8799C73.2264 35.8796 73.2267 35.8767 73.2275 35.8713ZM28.5647 50.1806C35.5615 48.8251 43.0515 49.1293 49.1122 52.7441C49.9635 53.2519 50.7614 53.8845 51.4577 54.6666C52.8672 56.2498 53.5951 58.2174 53.6295 60.1902C54.3467 59.7276 55.0652 59.2138 55.7951 58.6625L62.5721 53.5431C65.9642 50.9806 70.8941 50.9802 74.2867 53.5419C77.4215 55.9088 78.6713 60.1569 76.4272 63.754C74.8322 66.3105 72.4302 69.8467 69.9859 72.1106C67.5149 74.3992 63.9983 76.3234 61.3381 77.6074C58.1075 79.1667 54.6184 80.0287 51.2255 80.5779C44.291 81.7004 37.0753 81.5287 30.2187 80.1161C26.7147 79.3942 23.0733 79.0189 19.4747 79.0189H11C9.44669 79.0189 8.18749 77.7597 8.18749 76.2064C8.18749 74.6531 9.44669 73.3939 11 73.3939H19.4747C23.4577 73.3939 27.4793 73.8086 31.3537 74.6068C37.5489 75.8831 44.0753 76.0371 50.3266 75.0252C53.4351 74.522 56.3378 73.7749 58.893 72.5416C61.4558 71.3046 64.3372 69.6754 66.1636 67.9837C68.0105 66.2731 70.0776 63.3046 71.6548 60.7766C72.1307 60.0137 72.0649 58.9126 70.8972 58.0309C69.5107 56.984 67.3487 56.9843 65.9626 58.0314L59.1856 63.1508C56.4803 65.1944 53.1504 67.3808 49.0202 68.0396C48.6034 68.106 48.1694 68.1668 47.719 68.2205C47.5042 68.2593 47.2806 68.2849 47.0496 68.2936C44.9409 68.5031 42.4989 68.5518 39.8047 68.2974C38.2583 68.1514 37.1231 66.7794 37.2691 65.233C37.4151 63.6866 38.7871 62.5513 40.3335 62.6973C42.6864 62.9195 44.7974 62.8704 46.5883 62.6866C46.6247 62.6828 46.6609 62.679 46.6969 62.6752C46.7717 62.6317 46.886 62.5526 47.0359 62.4217C48.2339 61.3761 48.3409 59.625 47.2564 58.4069C46.9815 58.0981 46.643 57.821 46.2308 57.5751C41.8015 54.9333 35.8859 54.4918 29.6345 55.7029C23.4188 56.9071 17.2434 59.6812 12.627 62.9551C11.3599 63.8536 9.60438 63.5549 8.70584 62.2879C7.80729 61.0209 8.10601 59.2653 9.37304 58.3668C14.6169 54.648 21.5322 51.543 28.5647 50.1806Z" fill="#0F51FA"/>
</svg>
