<svg width="86" height="84" viewBox="0 0 86 84" fill="none" xmlns="http://www.w3.org/2000/svg">
<path d="M60.5 6.58398C56.3333 2.41732 50.9167 0.333984 45.9167 0.333984C40.9167 0.333984 35.0833 2.41732 31.3333 6.58398L7.16667 29.9173C-1.16666 38.2507 -1.16666 51.1673 7.16667 59.5007C15.5 67.834 28.4167 67.834 36.75 59.5007L60.5 35.7507C68.4167 27.834 68.4167 14.5007 60.5 6.58398ZM54.6667 29.9173L43 41.584L28 27.0007L9.66667 45.334C9.66667 42.0007 10.5 38.2507 13.4167 35.7507L37.1667 12.0007C39.25 9.91732 42.5833 8.66732 45.5 8.66732C48.4167 8.66732 51.75 9.91732 54.25 12.0007C59.25 17.4173 59.25 24.9173 54.6667 29.9173ZM74.6667 21.584C74.6667 24.9173 73.8333 27.834 73 31.1673C77.1667 36.1673 77.1667 43.6673 72.5833 48.2507L60.9167 59.9173L54.6667 53.6673L43 65.334C37.5833 70.7507 30.0833 73.6673 23 73.6673C23.8333 74.9173 24.6667 76.1673 25.9167 77.4173C34.25 85.7507 47.1667 85.7507 55.5 77.4173L79.25 53.6673C87.5833 45.334 87.5833 32.4173 79.25 24.084C77.1667 23.2507 75.9167 22.4173 74.6667 21.584Z" fill="#0F51FA"/>
</svg>
