<svg width="75" height="74" viewBox="0 0 75 74" fill="none" xmlns="http://www.w3.org/2000/svg">
<path d="M23.1875 25.75C23.1875 24.1967 24.4467 22.9375 26 22.9375H37.25C38.8033 22.9375 40.0625 24.1967 40.0625 25.75C40.0625 27.3033 38.8033 28.5625 37.25 28.5625H26C24.4467 28.5625 23.1875 27.3033 23.1875 25.75Z" fill="#0F51FA"/>
<path fill-rule="evenodd" clip-rule="evenodd" d="M0.831828 2.36064C1.32303 0.887049 2.9158 0.0906619 4.38939 0.581859L5.53083 0.962334C7.87973 1.74521 9.86472 2.4068 11.4256 3.13293C13.0847 3.90477 14.5243 4.86137 15.6159 6.3759C16.7075 7.89043 17.1598 9.55865 17.3674 11.3767C17.3791 11.479 17.39 11.5826 17.4004 11.6875L57.9155 11.6875C61.5753 11.6874 64.637 11.6873 66.9787 12.0339C69.4215 12.3956 71.7776 13.2269 73.2634 15.4803C74.7493 17.7337 74.5853 20.2267 73.9554 22.6145C73.3517 24.9033 72.1455 27.7174 70.7037 31.0811L68.9531 35.1659C68.2909 36.7112 67.7084 38.0707 67.1029 39.147C66.4475 40.3121 65.6472 41.3701 64.4357 42.169C63.2241 42.9679 61.9364 43.2867 60.6074 43.4302C59.3795 43.5627 57.9006 43.5626 56.2193 43.5625H19.0759C19.3527 44.0648 19.6712 44.4786 20.0338 44.8412C21.0717 45.8791 22.5288 46.5558 25.2805 46.9257C28.113 47.3066 31.8672 47.3125 37.25 47.3125H67.25C68.8033 47.3125 70.0625 48.5717 70.0625 50.125C70.0625 51.6783 68.8033 52.9375 67.25 52.9375H37.0442C31.9158 52.9376 27.782 52.9377 24.5309 52.5006C21.1555 52.0468 18.3135 51.0759 16.0563 48.8187C13.7991 46.5615 12.8283 43.7195 12.3745 40.3441C11.9374 37.093 11.9374 32.9593 11.9375 27.8308L11.9375 17.8114C11.9375 15.1377 11.9333 13.3686 11.7787 12.0148C11.6323 10.7329 11.3768 10.1145 11.0527 9.6649C10.7286 9.21527 10.2228 8.77728 9.05298 8.23306C7.81755 7.65833 6.14055 7.09485 3.60403 6.24934L2.61061 5.9182C1.13702 5.42701 0.340631 3.83423 0.831828 2.36064ZM17.7752 37.9375H56.0818C57.9414 37.9375 59.1136 37.9337 60.0035 37.8377C60.8256 37.7489 61.1418 37.6032 61.3392 37.473C61.5365 37.3429 61.795 37.1097 62.2004 36.389C62.6393 35.6089 63.1046 34.533 63.8371 32.8237L65.4442 29.0737C66.9987 25.4467 68.0317 23.0175 68.5165 21.1797C68.9876 19.3939 68.7489 18.8519 68.5675 18.5768C68.3861 18.3017 67.9819 17.8687 66.1549 17.5983C64.2748 17.3199 61.635 17.3125 57.6889 17.3125H17.5625C17.5625 17.4259 17.5625 17.5402 17.5625 17.6552L17.5625 27.625C17.5625 32.02 17.5665 35.3292 17.7752 37.9375Z" fill="#0F51FA"/>
<path fill-rule="evenodd" clip-rule="evenodd" d="M24.125 73.5625C19.4651 73.5625 15.6875 69.7849 15.6875 65.125C15.6875 60.4651 19.4651 56.6875 24.125 56.6875C28.7849 56.6875 32.5625 60.4651 32.5625 65.125C32.5625 69.7849 28.7849 73.5625 24.125 73.5625ZM21.3125 65.125C21.3125 66.6783 22.5717 67.9375 24.125 67.9375C25.6783 67.9375 26.9375 66.6783 26.9375 65.125C26.9375 63.5717 25.6783 62.3125 24.125 62.3125C22.5717 62.3125 21.3125 63.5717 21.3125 65.125Z" fill="#0F51FA"/>
<path fill-rule="evenodd" clip-rule="evenodd" d="M49.4375 65.1253C49.4375 69.7852 53.2151 73.5628 57.875 73.5628C62.5349 73.5628 66.3125 69.7852 66.3125 65.1253C66.3125 60.4654 62.5349 56.6878 57.875 56.6878C53.2151 56.6878 49.4375 60.4654 49.4375 65.1253ZM57.875 67.9378C56.3217 67.9378 55.0625 66.6786 55.0625 65.1253C55.0625 63.572 56.3217 62.3128 57.875 62.3128C59.4283 62.3128 60.6875 63.572 60.6875 65.1253C60.6875 66.6786 59.4283 67.9378 57.875 67.9378Z" fill="#0F51FA"/>
</svg>
